<?xml version="1.0" encoding="UTF-8"?>
<svg id="Layer_2" data-name="Layer 2" xmlns="http://www.w3.org/2000/svg" viewBox="0 0 355 846.27">
  <defs>
    <style>
      .cls-1 {
        fill: #3690cd;
      }

      .cls-2 {
        fill: #a8e9fd;
      }

      .cls-3 {
        fill: #fefefe;
      }

      .cls-4 {
        fill: #64cef4;
      }

      .cls-5 {
        fill: #235b92;
      }

      .cls-6 {
        fill: #3089c7;
      }
    </style>
  </defs>
  <g id="Layer_1-2" data-name="Layer 1">
    <g>
      <path class="cls-4" d="M165.78,34.56c5.24.12,11.54-.03,16.96.43.94,1.86-.68,5.22,1.15,5.99-.25,2.97.06,5.95.05,8.92-1.33-.1-1.01,1.36.17,1.02,2.6,1.39,5.68-.08,8.97,1.07l.18,16.06,8.57.96-.18,15.91c-2.79.88-5.28.26-8.18.72l-.17,33.36,8.38,1,.2,16.3,16.08.63-.1,16.1-15.92.4.11,83.64-.15,9.02.06,67.01,15.9.78.04,12.19c-5.28.96-10.72-.69-15.85.92-2.68.84-.1,2.76-.12,4.06-.13,6.6-.42,13.33.12,19.92.2,2.45-.99,5.05.03,8l15.63.36c.87,1.93-.16,3.84.04,5.48-5.04-.25-10.09-.64-15.69.25.41,4.73-2.12,15.74,2.86,13.95,2.41,1.43,6.76,1.76,9.16.02l3.72.06.44,29.96,16.36.78.19,16.15c-5.4.31-10.84.44-16.86.15l-.3-16.21c-4.74-.29-9.2-.18-13.62-.14-.01-1.17-1.4-.88-1.1.19-1.84.14-.79,12.78-.74,15.87l15.89.2.18,16.85,16.5.23.43,62.77.03,18.2.02,191.98-.19,47.73-.08,10.16c-3.91,1.05-11.89.36-16.69.54l-.13,25.46c-5.54.79-10.77.03-16.34.14l-.19-17.03-17.98-.53-.47-16.24-17.49-.38-.1-110.97-17.43-.43-.08-15.51,17.31-.55c.41-3.32.72-6.56-.07-9.51l-17.31-.37-.08-101.96,17.64-.45-.04-16.73-17.48-.59-.19-64.9c-6.18-.47-11.96-.59-17.59,0l-.43-34.91.02-163.03c0-5.64.44-11.27-.14-16.92-.45-4.36.82-8.91-.23-13.51-2.85-.47-5.67-.02-8.29-.05-2.78-.03-5.56-.25-8.31-.36l-.21-11.01c-2.73-.68-5.47.56-7.71-.04l-.87-.23c.34-2.71.69-5.47-.22-8.77-5.97-.29-11.52-.29-17.33.04l-.25,9.31-51.26.28c-1.1-2.95-.64-6.02-.31-9.21l7.8-.66c.93-2.88-.04-5.39.1-7.82l.47-8.3,8.86-.96.37-15.97c5.41-.86,11.86.72,17.13-.8.18-2.38-.54-6.7,2.52-6.14,1.79.1,3.7.42,5.82-.19l.61-15.71,8.02-.69.28-18.02c2.79-.41,5.79.18,8.25-1.32.6-.37,1.19-.62,1.18-1.93l-.09-14.35c3.04-.54,5.66-.2,8.29-.36s5.55.53,8.26-.35l.8-16.31,16.12-.46.68-16.19,7.43-.91.29-16.21,9.85-.72.26-16.42c6.28-.51,12.07-.34,17.83-.21ZM218.02,525.83l-.3-33.13c-5.68-.29-10.68-.46-15.9-.08l.12,33.31c5.6.24,10.39.43,16.07-.09Z"/>
      <path class="cls-5" d="M112.8,789.98v-77c0-1-.06-1.99,0-3,.3-4.65.33-9.35,0-14-.09-1.35,0-2.66,0-4v-73c0-2.01-.18-3.99,0-6,.33-3.65.28-7.34,0-11-.18-2.33-.08-4.67,0-7,.3-8.99,0-18.01,0-27v-147c0-2-.25-4,0-6,.21-1.72-.01-3.56.53-5.68l16.43-.24.43,34.91-.25,124.42c3.02.28,5.25-.29,7.82.6l-.1,30.4c-2.68.57-4.84-.17-7.68.85v182.51s17.75.38,17.75.38l.46,16.84,17.39.8.36,13.32c5.54.48,10.68.36,16.61.24,1.34-4.53.22-8.4.81-13.88l18.4-.35c5.58-.11,10.81.65,16.34-.14,5.09-.73,11.2,2.24,16.8-.18.77-2.22.27-5.25.68-7.76,5.56-1.42,11.2,1.01,16.27-1.08l.83-574.86.38,584.45-17.61.68-.46,12.64-16.67,1.11-.55,10.8-15.81.46-.46,19.63c-6.04.59-12.01.53-18.04.03l-.42-15.38c-7.5-1.47-17.75,3.55-18.31-4.02l-16.65-.8-.57-11.18-17.55-.47-.25-21.81c-5.14-1.33-16.84,2.07-16.9-2.23Z"/>
      <path class="cls-6" d="M129.65,229.11l-8.71-.07.16,16.51,8.69.48-.02,163.03-16.43.24c-.54,2.12-.32,3.96-.53,5.68-.26.15-1.01-.41-1.01-1.24l1.09-184.81,8.02-.14.21-13.23c2.62.03,5.43-.42,8.29.05,1.05,4.59-.22,9.15.23,13.51Z"/>
      <path class="cls-1" d="M303,138.98c.35,0,1.02.08,1.02,1.01l-.02,18.99c-6.52,4.62,17.8,3.04,15.91,2.32,2.51,5.14.41,11.14,1.09,16.68,4.68,2.33,10.54.35,16,1v16c0,.37.09,1,.97,1l16.02.02v18.93s-16.61.38-16.61.38c-.84,4.54-.19,8.67-.38,12.66l-64.96.02c-1.36-.2-2.31-.51-3.04-1.02v-9c.59-.58.94-1.33,1.13-2.13,4.59-.74,9.26-.15,13.87-.18l36.14-.2.07-28.44-7.62-.64c-.83-2.73-.34-5.29-.73-8.21l-8.55-.42c.05-2.42.16-4.96-.32-7.95-2.73-.92-5.3.37-7.75-.8l-.29-13.8-8.95-.46c.32-5.16.39-10.35.09-15.51,5.62-.57,11.28-.15,16.92-.28Z"/>
      <path class="cls-6" d="M200.99,18l-35.15-.28c-.41,6.22-.45,11.49-.05,16.84-5.76-.13-11.55-.3-17.83.21l-.26,16.42-9.85.72-.29,16.21-7.43.91-.68,16.19-16.12.46-.8,16.31c-2.71.88-5.62.19-8.26.35.34-5.44.37-10.93-.03-16.36,2.08.78,4.84-.32,7.65-.04.72-4.56-.98-15.25,1.08-17.67,2.11-.11,5.61,1.08,7.43-.73,1.54-1.82-.12-5.08.83-7.35l8.47-.58c.36-3.05,1.12-6.31-.71-8.51l-.04-12.16c0-1.68.47-2.9,1.04-3.94,5.8-.74,12.13,1.51,16.87-1.13.89-5.24-1.25-10.9,1.17-15.76l18.12.15-.11-17.27h34.88s.07,17.03.07,17.03Z"/>
      <path class="cls-5" d="M85.88,120.19c-3.26-.22-6.6-.42-9.88-.21-1.8.07-3.7-.22-5.92.11l-.22,15.92c-.07,4.97-1.45,9.57-.66,14.17.11.61-.07,1.48.09,2.04,1.75,6.3-10.33,2.12-16.91,3.18-.71,2.25-.08,4.41-.13,6.43l-.37,15.97-8.86.96-.47,8.3-16.79-.18-.43,8.37c-8.12.64-15.91.89-24.33.69v19.01s33.57.22,33.57.22c.84,4.25.29,7.77.32,12.53l16.04.3.1-13.03h43.92s.72-11,.72-11c3.33.08,6.12-.67,8.33-.08l.87.23c-.51,3.37-.63,6.93.05,10.71l7.87.34c2.75.12,5.53.33,8.31.36l-.21,13.23-8.02.14c.02-3.84-.06-7.74-.31-12.51-7.56-1.12-14.9-.51-22.59-.51l-36.47.02c-1.01,3.74-1.85,7.67-1.46,12.79l-18.03.29-.09-13.03H0s0-20.96,0-20.96l17.61-.36c.33-6.02-.25-11.02.58-16.26l15.76-.62.76-22.68,16.97-.23.37-16.15,16.67-.15.31-19.58,15.92.02c.83,0,1.36.6.92,1.18Z"/>
      <path class="cls-1" d="M269.11,85.87c2.3,10.44-.1,21.48,1.17,32.76l7.61.43c1.68,1.73,4.39.85,7.86.68.51,6.22.29,12.38.05,18.41-2.4.37-4.95.77-7.94-.33l-.06-17.48c-2.95-1.29-5.99.51-8.48-.2-2.68-.76-5.46-1.29-8.39-1.21l-.02-16.48c-2.89-.13-5.15.25-8.09-.54-.5-5.55-.49-10.83.08-15.94l16.23-.1Z"/>
      <path class="cls-6" d="M85.88,120.19c.25.02.51.14.76.1l-.28,18.02-8.02.69-.61,15.71c-2.12.61-4.04.29-5.82.19-.07-.64-.22-1.25-.54-1.9-.36-.7-1.23-.95-2.07-.78-.16-.57.02-1.43-.09-2.04.59.53,1.78-.29,1.78-1.2v-27.92c2.25.68,3.78-1.01,5.01-1.09,3.28-.21,6.62,0,9.88.21Z"/>
      <path class="cls-1" d="M217.76,18.04c-1.82,5.04-.24,10.67-.76,16.03-4.77.55-9.62.7-15.14-.05l-.87-16.03c.78,0,1.48-.43,2.01-.9,4.83.35,10.31-1.23,14.76.94Z"/>
      <path class="cls-5" d="M129,51.08c1.84,2.21,1.07,5.46.71,8.51l-8.47.58c-.95,2.27.71,5.53-.83,7.35-1.82,1.81-5.33.63-7.43.73.21-5.4-.75-10.96.34-16.62l15.68-.56Z"/>
      <path class="cls-5" d="M104.24,85.98c.4,5.44.37,10.92.03,16.36-2.63.16-5.25-.18-8.29.36l.09,14.35c0,1.3-.58,1.56-1.18,1.93l.39-33.27c3.53-.96,6.29-.73,8.96.26Z"/>
      <path class="cls-6" d="M112.81,562.98c-.45.14-.82-.35-.82-1.21v-139.58c0-.86.37-1.34.81-1.21v142Z"/>
      <path class="cls-6" d="M112.8,789.98l-.98-75.85c0-.7.71-1.3.99-1.15v77Z"/>
      <path class="cls-6" d="M112.81,691.98c-.45.14-.81-.39-.81-1.13v-70.73c0-.74.37-1.27.81-1.13v73Z"/>
      <path class="cls-6" d="M337,227.98h1c0,.35-.07,1.02-1.04,1.02h-67.67c-.5-.99-.28-1.55-.28-2.02.73.51,1.68.83,3.04,1.02l64.96-.02Z"/>
      <path class="cls-5" d="M269.11,85.87l-16.23.1c-.03-.49-.39-.86-.87-.9v-33.06s-16.99-.06-16.99-.06l-.05-16.96-16.98.09c.02-.37.02-.74,0-1.11,5.66.19,11.43-.4,17.66.31l.37,16.66,16.96.06v33.92s14.98.15,14.98.15c.74,0,1.56.16,1.13.79Z"/>
      <path class="cls-5" d="M338,227.98h-1c.19-3.99-.46-8.12.38-12.66l16.61-.38v-18.93s-16.02-.02-16.02-.02c-.88,0-.97-.63-.97-1h1l17,.02v20.96s-16.97.05-16.97.05l-.03,11.98Z"/>
      <path class="cls-5" d="M303,138.98c-5.64.13-11.3-.3-16.92.28-.02-.37-.3-.74-.28-1.1.24-6.03.45-12.19-.05-18.41-3.48.17-6.19,1.05-7.86-.68,2.82.16,5.74-.61,9.1.04l.03,18.84,14.04.03c1.03,0,2.02.21,1.94,1.01Z"/>
      <path class="cls-5" d="M203,17.1c-.52.46-1.23.9-2.01.9l-.07-17.02h-34.88s.11,17.26.11,17.26l-18.12-.15c-1.53-2.31,14.11-.28,16.58-1.49l1.08-16.61,35.93.15c1.28,3.89-.87,16.65,1.38,16.95Z"/>
      <path class="cls-6" d="M112.81,594.98c-.46.14-.8-.41-.8-1.08v-24.84c0-.67.34-1.22.8-1.08,0,8.99.3,18.01,0,27Z"/>
      <path class="cls-6" d="M270.13,215.85c-.19.79-.54,1.55-1.13,2.13.19-.52.2-2-.96-1.99l-15.35.1c-.69-.07-.67-.31-.13-.68,5.79-.19,12.05-1.51,17.57.45Z"/>
      <path class="cls-5" d="M146.87,33.85c-4.74,2.64-11.06.39-16.87,1.13,1.19-2.16,13.22-.38,16.87-1.13Z"/>
      <path class="cls-6" d="M338,194.98h-1v-17c.35-.16,1.01.18,1.01.98v16.02Z"/>
      <path class="cls-5" d="M337,177.98v1c-5.46-.65-11.32,1.33-16-1h16Z"/>
      <path class="cls-6" d="M218,33.98c-.33-.01-.67.06-1,.09.52-5.36-1.06-10.99.76-16.03.57,5.29.08,10.63.24,15.94Z"/>
      <path class="cls-6" d="M319.91,161.3c1.89.72-22.44,2.3-15.91-2.32-2.5,3.96,13.41.89,15.91,2.32Z"/>
      <path class="cls-6" d="M112.81,709.98c-1.39-4.26-1.39-9.74,0-14,.33,4.65.3,9.35,0,14Z"/>
      <path class="cls-6" d="M112.81,612.98c-1.41-3.22-1.41-7.78,0-11,.28,3.66.33,7.35,0,11Z"/>
      <path class="cls-3" d="M260.92,118.93c2.93-.08,5.71.45,8.39,1.21-.32,5.72-.17,11.52.15,17.76l7.98.41.48,16.34c3.09.79,5.62,0,8.07.12l8.95.46.29,13.8c2.44,1.17,5.02-.12,7.75.8.48,2.99.37,5.53.32,7.95l-.33,17.2-16.49.34-.1,17.75c0,1.56-1.5,2.22-2.38,2.61-4.61.03-9.28-.56-13.87.18-5.52-1.96-11.78-.64-17.57-.45s-11.53.23-17.25-.23c.1-6.46-.62-12.93-.09-20l-17.12-.04v20.6s8.43.31,8.43.31l.25,20.83-24.73.2-.11-83.64,15.92-.4.1-16.1-16.08-.63-.2-16.3-8.38-1,.17-33.36c2.91-.47,5.4.16,8.18-.72l.18-15.91-8.57-.96-.18-16.06c-3.29-1.15-6.37.33-8.97-1.07-.02-.34-.17-.68-.17-1.02,0-2.97-.3-5.95-.05-8.92.17-2.03-.07-4.09.86-6.27,5.7-.04,10.85-.58,16.27.18l.65,16.48,15.85.56.63,16.59,8.11.39.85,16.75c2.74-.02,5.22-.57,7.8.38l.35,15.97c5.82,1.3,11.38-.16,17.05.5l.64,16.26c2.97,1.22,5.56.22,7.98.16ZM260.6,203.24c.56-3.15.54-5.2-.14-7.97-2.09.07-6.06-1.27-7.38.6-1.46,2.07-.26,5.17-.37,7.33,2.69.45,5.01.66,7.88.04Z"/>
      <path class="cls-6" d="M201.76,800.11l-18.4.35c-.59,5.48.53,9.35-.81,13.88-5.93.11-11.07.23-16.61-.24l-.36-13.32-17.39-.8-.46-16.84-17.76-.38v-182.51c2.85-1.02,5.01-.28,7.69-.85l.1-30.4c-2.57-.89-4.79-.32-7.82-.6l.25-124.42c5.63-.59,11.41-.47,17.59,0l.19,64.9,17.48.59.04,16.73-17.64.45.08,101.96,17.31.37c.79,2.95.48,6.19.07,9.51l-17.31.55.08,15.51,17.43.43.1,110.97,17.49.38.47,16.24,17.98.53.19,17.03Z"/>
      <path class="cls-1" d="M252.56,215.4c-.54.37-.56.61.13.68l-.83,574.86-1.22-318.7c-4.6,6.93-6.62,14.19-7.24,21.31l-1.13,12.97c-2.77-2.02-5.07-2.35-7.12-.63l-.43-62.77.06-17.14-.19-16.15.22-155.77.02-8.06.48-30.85c5.72.46,11.5.42,17.25.23Z"/>
      <path class="cls-6" d="M251.85,790.95c-5.07,2.09-10.71-.34-16.27,1.08-.41,2.51.09,5.54-.68,7.76-5.59,2.42-11.71-.54-16.8.18l.13-25.46c4.8-.19,12.78.5,16.69-.54.52-.14,1.96.44,2.03-.96.11-2.27.88-11.22-1.95-9.2l.19-47.73c2.06-.7,3.67-1.04,6.56.89,11.43-28.96,1.08-21.99,3.16-46.03.36-4.11.46-7.14,1.68-11.51,1.46-5.26-.29-28.68-1.15-31.02-2.81-7.64-3.73-13.55-.15-21.35,2.76-6.03.78-14.37,2.14-20.97,3.1-14.99-1.93-13.95.23-29.79,1.26-9.22,1.8-17.74.17-27.05-.64-3.66-3.05-10.1-7.34-8.81-1.73.52-2.83,4.72-5.33,3.67l-.03-18.2c2.05-1.72,4.35-1.4,7.12.63l1.13-12.97c.62-7.12,2.64-14.38,7.24-21.31l1.22,318.7Z"/>
      <path class="cls-2" d="M234.82,254.07l-.22,155.77-16.36-.78-.44-29.96c-.07-4.74.52-9.54-.05-14.29-.2-1.65.83-3.55-.04-5.48l-15.63-.36c-1.03-2.94.17-5.54-.03-8l15.77-.96.08-23.94-.04-12.19.08-17.36,8.84-.64-.48-16.09c-2.32-.75-5.35.76-7.39-.82s-.78-5.42-.71-7.8l8.43-.71.11-15.57,8.06-.82Z"/>
      <path class="cls-1" d="M235.2,716.07l-.02-191.98c2.49,1.05,3.6-3.15,5.33-3.67,4.29-1.29,6.7,5.15,7.34,8.81,1.63,9.31,1.09,17.83-.17,27.05-2.16,15.84,2.87,14.8-.23,29.79-1.37,6.61.62,14.94-2.14,20.97-3.58,7.8-2.66,13.71.15,21.35.86,2.34,2.61,25.76,1.15,31.02-1.22,4.37-1.33,7.4-1.68,11.51-2.08,24.04,8.27,17.07-3.16,46.03-2.89-1.94-4.5-1.59-6.56-.89Z"/>
      <path class="cls-6" d="M42.56,187.06c-.14,2.44.83,4.94-.1,7.82l-7.8.66c-.33,3.19-.8,6.25.31,9.21l51.26-.28.25-9.31c5.8-.34,11.35-.34,17.33-.04.92,3.3.56,6.07.22,8.77-2.2-.59-5,.16-8.33.08l-.72,11h-43.92s-.1,13.03-.1,13.03l-16.04-.3c-.03-4.76.52-8.28-.32-12.53l-33.57-.22v-19.01c8.41.2,16.2-.05,24.33-.69l.43-8.37,16.79.18Z"/>
      <path class="cls-2" d="M200.99,18l.87,16.03c5.52.75,10.37.6,15.14.05.33-.04.67-.11,1-.09.01.37.01.74,0,1.11-.25,5.07-.18,10.18.16,15.77,2.78,1.17,5.42.57,8.22.79l.56,16.76c2.93.55,5.4-.4,8.04.43l.15,16.22c5.9.72,11.48.56,16.89.02.49.04.85.41.87.9-.57,5.11-.58,10.39-.08,15.94,2.94.79,5.2.42,8.09.54l.02,16.48c-2.41.06-5.01,1.06-7.98-.16l-.64-16.26c-5.67-.67-11.23.8-17.05-.5l-.35-15.97c-2.58-.95-5.06-.39-7.8-.38l-.85-16.75-8.11-.39-.63-16.59-15.85-.56-.65-16.48c-5.42-.77-10.57-.22-16.27-.18-.93,2.18-.69,4.24-.86,6.27-1.82-.77-.2-4.13-1.15-5.99-5.42-.47-11.72-.31-16.96-.43-.39-5.35-.35-10.62.05-16.84l35.15.28Z"/>
      <path class="cls-3" d="M218.03,246.09c.01,2.73-.37,5.42.22,8.49,3.18-.21,5.88.59,8.51.32l-.11,15.57-8.43.71c-.08,2.38-1.31,6.24.71,7.8s5.07.07,7.39.82l.48,16.09-8.84.64-.08,17.36-15.9-.78-.06-67.01h16.12Z"/>
      <path class="cls-2" d="M235.31,215.17l-.48,30.85c-5.6-.25-11.25-.75-16.81.07h-16.12s.15-9.01.15-9.01l24.73-.2-.25-20.83-8.42-.31v-20.6s17.11.04,17.11.04c-.53,7.07.19,13.54.09,20Z"/>
      <path class="cls-3" d="M218.02,525.83c-5.68.53-10.47.34-16.07.09l-.12-33.31c5.22-.38,10.22-.2,15.9.08l.3,33.13Z"/>
      <path class="cls-3" d="M217.91,326.07l-.08,23.94-15.77.96c-.53-6.59-.25-13.31-.12-19.92l.12-4.06c5.12-1.61,10.57.03,15.85-.92Z"/>
      <path class="cls-3" d="M204,409.79c4.42-.05,8.89-.15,13.62.14l.3,16.21c6.02.29,11.45.16,16.86-.15l-.06,17.14-16.5-.23-.18-16.85-15.89-.2c-.05-3.09-1.1-15.72.74-15.87.36-.03.73-.19,1.1-.19Z"/>
      <path class="cls-3" d="M217.75,364.82c.57,4.74-.02,9.55.05,14.29l-3.72-.06c-3.05-.05-6.11-.08-9.16-.02-4.97,1.79-2.44-9.21-2.86-13.95,5.6-.89,10.65-.51,15.69-.25Z"/>
      <path class="cls-1" d="M129.65,229.11c.58,5.64.14,11.27.14,16.92l-8.69-.48-.16-16.51,8.71.07Z"/>
      <path class="cls-1" d="M71.91,154.91c-3.06-.56-2.34,3.76-2.52,6.14-5.28,1.52-11.72-.06-17.13.8.05-2.02-.58-4.18.13-6.43,6.58-1.06,18.66,3.12,16.91-3.18.85-.17,1.71.07,2.07.78.33.64.47,1.25.54,1.9Z"/>
      <path class="cls-6" d="M112.82,215.19l-7.87-.34c-.68-3.78-.57-7.34-.05-10.71,2.24.6,4.98-.64,7.71.04l.21,11.01Z"/>
      <path class="cls-1" d="M234.93,773.97l.08-10.16c2.83-2.02,2.07,6.93,1.95,9.2-.07,1.41-1.51.82-2.03.96Z"/>
      <path class="cls-2" d="M214.08,379.04c-2.4,1.74-6.76,1.4-9.16-.02,3.05-.06,6.11-.03,9.16.02Z"/>
      <path class="cls-2" d="M201.94,331.06c.03-1.31-2.56-3.22.12-4.06l-.12,4.06Z"/>
      <path class="cls-2" d="M204,409.79c-.36,0-.73.16-1.1.19-.3-1.07,1.08-1.36,1.1-.19Z"/>
      <path class="cls-2" d="M184.11,50.92c-1.17.34-1.5-1.12-.17-1.02,0,.34.14.68.17,1.02Z"/>
      <path class="cls-2" d="M284,215.68c.88-.38,2.37-1.05,2.38-2.61l.1-17.75,16.49-.34.33-17.2,8.55.42c.39,2.92-.1,5.48.73,8.21l7.62.64-.07,28.44-36.14.2Z"/>
      <path class="cls-2" d="M285.8,138.15c-.01.37.26.74.28,1.1.3,5.16.23,10.35-.09,15.51-2.46-.13-4.98.67-8.07-.12l-.48-16.34-7.98-.41c-.32-6.24-.47-12.03-.15-17.76,2.49.71,5.53-1.1,8.48.2l.06,17.48c2.99,1.1,5.54.7,7.94.33Z"/>
      <path class="cls-1" d="M76,119.98c-1.24.08-2.76,1.76-5.01,1.09v27.92c0,.91-1.2,1.73-1.79,1.2-.8-4.6.59-9.21.66-14.17l.22-15.92c2.22-.33,4.12-.05,5.92-.11Z"/>
      <path class="cls-1" d="M252.01,85.07c-5.41.54-10.99.7-16.89-.02l-.15-16.22c-2.64-.84-5.11.12-8.04-.43l-.56-16.76c-2.8-.22-5.44.38-8.22-.79-.34-5.59-.41-10.71-.16-15.77l16.98-.09.05,16.96,16.98.06v33.06Z"/>
      <path class="cls-2" d="M260.6,203.24c-2.87.62-5.19.41-7.88-.04.11-2.17-1.09-5.26.37-7.33,1.32-1.87,5.29-.53,7.38-.6.68,2.77.7,4.82.14,7.97Z"/>
      <path class="cls-4" d="M234.84,246.01l-.02,8.06-8.06.82c-2.63.27-5.33-.53-8.51-.32-.59-3.07-.21-5.76-.22-8.49,5.56-.83,11.21-.32,16.81-.07Z"/>
    </g>
  </g>
</svg>