<?xml version="1.0" encoding="UTF-8"?>
<svg id="Layer_2" xmlns="http://www.w3.org/2000/svg" viewBox="0 0 271.74 1578.95">
  <g id="Layer_1-2" data-name="Layer_1">
    <g>
      <path d="M13.85,806.52c1.63-4.8,3.14-8.49,4.1-12.3.99-3.93,3.79-3.7,6.59-3.24.65.11,1.51,2.72,1.45,2.75-3.75,2.14-2.29,5.7-1.85,8.43.76,4.7-2.03,10.28,3.08,14.08.17.12-.57,2.22-1,2.27-2.47.24-4.98.27-7.44,0-.31-.03-.4-2.16-.59-3.32,3.54-.53,2.46-3.27,2.5-5.39.07-3.82.02-7.64-1.1-11.75-1.11,3.25-2.07,6.57-3.41,9.72-.5,1.17-1.88,1.97-2.86,2.94-.83-.94-2-1.74-2.44-2.84-1.27-3.21-2.25-6.54-4.6-9.79,0,4.96-.03,9.93.04,14.89,0,.54.43,1.17.83,1.6.88.94,1.86,1.77,2.81,2.65-.9.52-1.82,1.49-2.7,1.46-2.37-.08-4.72-.58-7.06-1.03-.05,0-.07-1.6.3-2.19,3.46-5.42,3.84-15.25.94-21.65-.32-.71.65-2.78.72-2.77,2.22.46,5.48.43,6.37,1.85,1.96,3.17,2.72,7.08,3.99,10.68.21.6.52,1.16,1.33,2.91Z"/>
      <path d="M8.61,1099.5c.39,2.95-1.87,6.89,3.32,8.11.17.04,0,2.46-.07,2.46-3.38.17-6.78.22-10.16.12-.11,0-.56-2.23-.18-2.5,7.47-5.4,1.55-13.01,3.23-19.34.1-.36-.98-1-1.46-1.54-.75-.85-1.46-1.73-2.19-2.59,1.11-.47,2.2-1.28,3.33-1.35,2.98-.19,5.98-.05,8.98-.07,4.23-.03,8.05.75,9.76,5.27,1.49,3.93.2,6.67-5.26,10.8,2.78,2.77,5.53,5.45,8.18,8.22.5.52,1.03,1.64.8,2.1-.36.71-1.54,1.66-2.06,1.5-1.59-.49-3.38-1.14-4.46-2.32-1.66-1.81-2.5-4.4-4.23-6.12-1.77-1.77-4.19-2.89-6.33-4.3-.4.52-.8,1.04-1.2,1.55ZM8.75,1095.88c3.99-1.24,7.22-2.09,10.27-3.35.44-.18.4-3.34-.02-3.5-3.18-1.2-6.51-1.99-10.25-3.04v9.89Z"/>
      <path d="M6.16,1056.91c.98-1.83,1.91-3.57,3.05-5.68-6.57-3.54-8.63-9.57-7.66-16.91.86-6.49,5.96-11.4,11.85-11.52,5.93-.12,11.11,4.54,12.27,11.03,1.82,10.15-2.27,15.96-12.59,18.04-.79.16-1.45.93-1.96,2.31h13.34c.23.45.45.89.68,1.34-1.53.75-3.06,2.13-4.59,2.14-4.54.05-9.09-.44-14.39-.77ZM21.88,1037.16c-.06-7.39-4.96-11.98-10.67-9.98-4.72,1.65-7,7.54-5.41,13.96,1.07,4.34,4.56,7.03,8.61,6.64,4.64-.45,7.52-4.53,7.47-10.62Z"/>
      <path d="M19.29,514.05h-11.11c1.3,3.22-2.89,7.55,3.01,9.12.24.06.58.55.53.79-.16.89-.42,2.51-.7,2.52-2.78.11-5.57,0-8.34-.25-.12-.01-.31-1.98-.05-2.91.47-1.68,1.71-3.25,1.83-4.92.28-3.98.16-7.99.05-11.99-.03-1.19-.47-2.42-.93-3.54-.39-.95-1.1-1.77-1.66-2.65,1.13-.47,2.22-1.16,3.39-1.35,1.46-.23,3.02-.22,4.48.04.79.14,1.73.87,2.06,1.59.21.44-.47,1.89-.93,1.98-4.71.93-1.99,4.37-2.68,7.04h10.48c.13-2.68,2.61-6.05-2.56-7.12-.32-.07-.81-.91-.7-1.2.31-.81.89-2.16,1.36-2.16,2.74.02,5.49.37,8.23.61-.25.99-.42,2.01-.78,2.96-.46,1.23-1.5,2.38-1.55,3.6-.19,4.49-.13,8.99-.03,13.49.02,1.02.53,2.05.94,3.03.44,1.05,1.03,2.05,1.55,3.07-1.04.34-2.06.88-3.13.98-1.65.15-3.44.32-4.94-.18-.66-.22-.77-2.09-1.12-3.21,5.58-1.43,2.4-5.72,3.3-9.31Z"/>
      <path d="M21.75,160.99c3.56,2.35,4.99,5.68,3.23,9.75-1.75,4.05-5.29,5.16-9.42,5.07-3.49-.07-6.98.09-10.46-.08-1.15-.06-2.27-.82-3.41-1.26.68-.9,1.35-1.81,2.05-2.7.45-.58,1.35-1.12,1.36-1.68.11-5.48.08-10.96.06-16.44,0-.47-.1-1.06-.39-1.39-.94-1.07-2-2.05-3.01-3.07,1.79-.47,3.56-1.17,5.38-1.34,2.47-.23,4.98-.13,7.47-.04,8.53.31,11.42,5.49,7.12,13.18ZM9,171.68c2.84,0,5.6.54,7.99-.18,1.79-.54,3.1-2.68,4.62-4.11-1.61-1.52-3-3.74-4.9-4.36-2.32-.76-5.09-.18-7.71-.18v8.83ZM8.95,160.95c4.1-1.36,7.37-2.31,10.47-3.65.39-.17.24-3.32-.23-3.48-3.18-1.12-6.5-1.81-10.24-2.75v9.88Z"/>
      <path d="M5.34,1379.14c.76,5.39,1.47,10.44,2.18,15.48.23.02.46.04.69.06.73-2.28,1.29-4.65,2.25-6.83.84-1.9,2.14-3.6,3.24-5.39,1.15,1.81,2.49,3.54,3.39,5.46.97,2.07,1.52,4.33,3.22,6.5.62-4.91,1.25-9.82,1.9-14.96-.67-.23-1.29-.36-1.82-.65-1.24-.69-2.43-1.46-3.64-2.2,1.34-.6,2.64-1.44,4.05-1.73,1.43-.3,3.08-.36,4.44.07.88.27,2.15,1.76,2.01,2.46-1.37,7.04-2.94,14.04-4.62,21.01-.37,1.53-1.4,2.9-2.13,4.34-.98-1.33-2.32-2.52-2.88-4-1.38-3.65-2.4-7.43-4.61-11.17-1.16,4.21-2.22,8.46-3.56,12.61-.33,1.01-1.57,1.73-2.39,2.58-.73-.91-1.93-1.74-2.12-2.76-.95-5.23-1.64-10.51-2.44-15.76-.2-1.31-.38-2.64-.71-3.92-.43-1.69-1-3.34-1.52-5.01,3.1-.05,6.19-.09,9.29-.14-.19,1.16-.03,2.64-.69,3.38-.56.62-2.08.39-3.54.59Z"/>
      <path d="M99.8,10.65c-.36-1.73-.72-3.46-1.15-5.52h-11.42v7.46c2.87-1.14,5.13-2.05,7.81-3.12v8.68c-2.38-1.42-4.63-2.76-7.85-4.68v11.1h11.37c.43-1.77.88-3.61,1.34-5.44.58-.04,1.15-.09,1.73-.13.26,2.58.91,5.21.56,7.7-.12.87-2.66,1.94-4.13,2.01-5.14.24-10.3.18-15.45.03-1.11-.03-2.19-.92-3.28-1.41.75-.84,1.59-1.62,2.21-2.55.71-1.06,1.7-2.22,1.75-3.37.21-4.31.28-8.65-.03-12.95-.09-1.3-1.59-2.5-2.45-3.75-.5-.74-1.46-1.55-1.36-2.2.1-.64,1.26-1.58,1.97-1.6,6.15-.13,12.3-.15,18.45,0,.85.02,2.34,1.15,2.37,1.81.12,2.67-.23,5.37-.4,8.06-.68-.04-1.36-.08-2.04-.12Z"/>
      <path d="M161.8,10.65c-.36-1.73-.72-3.46-1.15-5.52h-11.42v7.46c2.87-1.14,5.13-2.05,7.81-3.12v8.68c-2.38-1.42-4.63-2.76-7.85-4.68v11.1h11.37c.43-1.77.88-3.61,1.34-5.44.58-.04,1.15-.09,1.73-.13.26,2.58.91,5.21.56,7.7-.12.87-2.66,1.94-4.13,2.01-5.14.24-10.3.18-15.45.03-1.11-.03-2.19-.92-3.28-1.41.75-.84,1.59-1.62,2.21-2.55.71-1.06,1.7-2.22,1.75-3.37.21-4.31.28-8.65-.03-12.95-.09-1.3-1.59-2.5-2.45-3.75-.5-.74-1.46-1.55-1.36-2.2.1-.64,1.26-1.58,1.97-1.6,6.15-.13,12.3-.15,18.45,0,.85.02,2.34,1.15,2.37,1.81.12,2.67-.23,5.37-.4,8.06-.68-.04-1.36-.08-2.04-.12Z"/>
      <path d="M21.75,333.58c-.34-1.74-.68-3.49-1.07-5.5h-11.49v7.3c2.82-1.02,5.22-1.88,7.91-2.86v8.56c-2.27-1.3-4.62-2.64-7.94-4.54v10.87h11.42c.42-1.71.88-3.53,1.33-5.35.59-.03,1.18-.05,1.78-.08.24,2.62.93,5.32.47,7.81-.17.92-3.03,1.82-4.71,1.91-4.97.25-9.97.18-14.95.01-1.07-.04-2.11-.99-3.17-1.53.79-.81,1.67-1.54,2.34-2.44.68-.91,1.6-1.96,1.64-2.98.18-4.65.21-9.31-.02-13.95-.05-1.05-1.35-2.04-2.1-3.04-.6-.82-1.23-1.62-1.85-2.42.74-.51,1.46-1.45,2.21-1.47,6.15-.12,12.3-.14,18.45.03.81.02,2.25,1.23,2.27,1.92.09,2.64-.28,5.3-.48,7.95-.68-.07-1.35-.14-2.03-.21Z"/>
      <path d="M133.11,0c-.14,3.22-.27,5.98-.39,8.73-5.07-4.18-9.35-7.56-15.05-2.8-3.6,3-4.44,10.2-1.99,14.84,2.09,3.95,6.61,6.13,10.99,4.66,1.59-.53,2.69-2.55,4.01-3.9-.33-.46-.67-.93-1-1.39-1.27-.12-2.6-.03-3.78-.41-1.06-.34-1.96-1.19-2.93-1.81,1.05-.71,2.02-1.71,3.19-2.04,1.23-.36,2.64-.13,3.97-.07,3.19.14,8.13-.93,3.49,4.86-.09.11-.06.32-.09.48-.46,2.33-.16,5.67-1.57,6.73-2.02,1.52-5.28,1.76-8.04,1.84-6.61.18-11.67-3.83-13.21-9.94-3.14-12.48,4.31-20.9,17.12-19.43,1.39.16,2.83-.17,5.27-.34Z"/>
      <path d="M23.65,439.07v10.37c-5.19-6.09-9.98-9.7-15.75-3.72-3.28,3.39-3.49,10.92-.63,14.98,2.74,3.89,6.67,5.03,10.98,3.55,1.4-.48,2.21-2.71,4.05-5.16-3.29-.17-4.94-.07-6.5-.42-.71-.16-1.68-1.21-1.69-1.86,0-.66,1.01-1.85,1.64-1.89,2.98-.19,5.99-.17,8.97.05.6.04,1.69,1.4,1.58,1.95-.65,3.26-1.33,6.56-2.59,9.62-.39.94-2.55,1.31-3.97,1.65-7.29,1.78-13.62-.3-16.52-5.86-3.14-6.03-3.07-12.29.74-18.01,3.44-5.15,8.54-6.41,14.49-5.06,1.48.33,3.14-.09,5.19-.19Z"/>
      <path d="M178.61,7.7v16.72c1.14.17,2.33.1,3.25.56.71.35,1.35,1.33,1.48,2.13.07.44-.95,1.48-1.53,1.52-2.48.18-5.01.3-7.45-.04-.57-.08-1.56-2.58-1.18-3.08,4.64-6.14.86-13.04,1.93-19.46.04-.26-.18-.72-.41-.84-1.59-.81-4.62-.82-2.45-3.8,1.21-1.66,6.61-.6,7.87,1.5,3.15,5.27,6.15,10.64,9.22,15.97.38.66.85,1.27,1.84,2.74V5.1c-.8-.1-1.77-.08-2.62-.39-.69-.25-1.57-.8-1.77-1.41-.19-.58.36-2.03.64-2.04,2.93-.17,5.88-.18,8.81-.02.21.01.6,1.75.43,2.6-.56,2.85-1.77,5.63-1.94,8.48-.32,5.28-.09,10.6-1.29,16.85-1.19-1.07-2.74-1.94-3.51-3.25-3.59-6.11-6.96-12.35-10.4-18.55-.31.11-.61.22-.92.33Z"/>
      <path d="M20.49,868.57v-15.46c-1.27-.15-2.27-.09-3.13-.43-.68-.26-1.51-.94-1.64-1.56-.12-.6.54-1.97.89-1.98,2.93-.09,5.86.02,8.78.26.14.01.37,1.76.17,2.62-.53,2.36-1.72,4.66-1.84,7.02-.27,5.79-.09,11.59-.09,17.39-.44.29-.88.57-1.33.86-1.18-1.17-2.68-2.16-3.49-3.55-3.51-6.02-6.82-12.15-10.85-19.4v18.1c.27.08.75.14,1.14.36,1.13.64,2.23,1.34,3.34,2.02-1.11.66-2.16,1.63-3.36,1.91-1.42.33-3,.23-4.46.03-1.02-.14-1.97-.77-2.96-1.18.47-.92.99-1.82,1.38-2.78.46-1.13,1.08-2.3,1.12-3.48.14-3.99.09-7.98.04-11.97-.02-2.02.75-4.47-2.57-4.91-.44-.06-1.19-1.53-.98-1.93.38-.72,1.31-1.5,2.1-1.61,2.86-.37,5.38-.28,7.06,3.02,2.92,5.75,6.35,11.24,9.57,16.85l1.09-.19Z"/>
      <path d="M211.58.8c11.57,0,16.33,4.33,16.06,14.61-.23,8.44-4.98,13.2-13.44,13.38-2.66.06-5.36.24-7.96-.16-.73-.11-1.77-2.17-1.63-3.19.29-2.17,1.66-4.21,1.87-6.37.34-3.46.09-6.97.09-10.47,0-.83.16-1.72-.07-2.48-1.6-5.33-1.63-5.32,4.59-5.32.17,0,.33,0,.5,0ZM210.44,24.58c4.96.46,10.12.9,11.83-3.81,1.32-3.63,1.26-8.71-.3-12.21-1.93-4.32-6.96-4.09-11.53-3.46v19.48Z"/>
      <path d="M9.6,264.83c12.52-1.16,16.82,6.86,15.99,15.9-.68,7.38-5.25,11.73-12.72,12.06-1.49.06-2.99.01-4.49.01-5.87,0-5.32.13-4.08-5.11.93-3.94.37-8.27.21-12.42-.1-2.56,1.33-5.72-2.18-7.31.53-1.05.89-2.83,1.62-3,1.9-.43,3.96-.14,5.66-.14ZM8.47,288.62c5.17.37,10.49.79,12.08-4.36,1.14-3.69.81-8.76-.92-12.16-1.97-3.87-6.84-3.76-11.16-2.89v19.41Z"/>
      <path d="M21.29,113c-2.64-7.73-8.91-2.52-13.21-4.54-.75,1.79-1.32,3.14-1.65,3.91,1.56,1.46,2.8,2.63,4.04,3.8-1.55.54-3.06,1.29-4.66,1.57-1.44.26-3.1.33-4.43-.16-.73-.27-1.64-2.21-1.33-2.82,3.35-6.61,6.92-13.11,10.81-20.36-2.22-.34-3.24-.25-3.94-.67-.95-.57-1.66-1.53-2.47-2.32.89-.53,1.74-1.41,2.69-1.54,7.79-1.06,8.31-.53,11.42,6.58,2.67,6.08,5.87,11.93,8.72,17.93.37.77.17,2.67.11,2.67-3.09.29-6.19.51-9.28.48-.28,0-1.01-2.19-.74-2.41,1.04-.87,2.4-1.36,3.91-2.12ZM13.33,92.14c-1.71,5.02-2.95,8.65-4.25,12.47h9.1c-1.55-3.97-2.95-7.57-4.85-12.47Z"/>
      <path d="M11.44,1446.59c-2.75-3.47-5.25-6.54-7.64-9.7-.62-.82-.9-1.89-1.34-2.85.98-.41,1.97-1.2,2.92-1.16,1.87.08,3.72.62,5.57.97-.47,1.22-.93,2.44-1.61,4.2.9,1.2,2.3,3.05,4.23,5.62,1.71-2.13,3.19-3.97,4.12-5.13-.36-2.27-.6-3.79-.84-5.31,2.57.07,5.14.15,7.71.22-.14,1.04.05,2.3-.47,3.08-2.43,3.57-7.1,7.05-7.04,10.49.06,3.39,4.81,6.72,7.56,10.02,1.66,1.99,1.43,3.31-1.25,3.7-1.31.19-2.7.24-3.98,0-1.14-.21-2.19-.92-3.29-1.41.67-1.11,1.34-2.22,2.23-3.71-1.23-1.64-2.8-3.73-4.71-6.28-1.91,2.34-3.54,4.34-5.02,6.16.96,1.46,1.81,2.73,2.66,4.01-1.15.43-2.33,1.25-3.46,1.2-2.02-.1-4.01-.73-6.02-1.14.45-.94.75-2.01,1.38-2.81,2.66-3.37,5.41-6.65,8.29-10.16Z"/>
      <path d="M9.9,685.89c2.51-2.36,5.02-4.73,7.28-6.84-.52-1.59-.94-2.85-1.35-4.11,2.01-.38,4.01-.96,6.04-1.06,1.15-.05,2.34.69,3.51,1.08-.45.92-.67,2.12-1.39,2.72-3.02,2.52-6.18,4.87-9.53,7.46,3.98,4.64,7.71,8.87,11.24,13.25.48.59-.04,1.98-.09,3.01-1.62-.34-3.99-.13-4.71-1.12-1.93-2.65-2.93-5.97-4.76-8.71-1-1.5-2.94-2.37-4.46-3.53-.92,1.26-2.65,2.57-2.58,3.77.12,2.04-2.09,5.21,2.02,6.13.66.15,1.08,1.36,1.61,2.08-.83.59-1.6,1.51-2.52,1.69-1.44.29-3.01.28-4.47.04-1.47-.25-2.86-.93-4.29-1.42,1.02-1.15,2.04-2.3,3.82-4.31v-17.49c-.6-.21-1.57-.34-2.25-.85-.68-.5-1.53-1.45-1.45-2.1.08-.65,1.16-1.58,1.89-1.67,1.97-.24,4-.27,5.97-.04,1.13.13,2.18.93,3.27,1.43-.77.84-1.88,1.57-2.25,2.56-.89,2.39-1.44,4.9-2.13,7.36l1.57.67Z"/>
      <path d="M16.42,399.64c-.42-1.16-.83-2.31-1.32-3.66h-5.22v9.33c.26.11.69.27,1.11.45,1.7.74,3.39,1.49,5.08,2.24-1.66.6-3.28,1.48-5,1.72-2.12.3-4.33.22-6.47,0-.99-.1-1.9-.91-2.84-1.4.59-.83,1.18-1.67,1.78-2.49.73-1,2.05-1.95,2.1-2.98.23-4.65.22-9.32,0-13.96-.05-1.07-1.24-2.1-1.97-3.11-.6-.83-1.28-1.6-1.92-2.39.91-.53,1.81-1.49,2.72-1.51,6.62-.13,13.25-.07,20.14-.07v9.83c-.48.1-.97.21-1.45.31-.6-1.79-1.21-3.58-1.96-5.8h-11.47v7.13c2.65-.84,5.01-1.58,7.89-2.48v8.73c-.41.04-.81.08-1.22.12Z"/>
      <path d="M2.76,1212.74c-2.25-3.58-1.04-7.67-.3-11.4.17-.84,3.58-1.38,5.53-1.46,4.66-.21,9.34-.27,13.98.08,1.23.09,3.2,1.8,3.32,2.93.34,3.25-.09,6.59-.22,9.89-.7-.01-1.41-.03-2.11-.04-.41-2.82-.82-5.64-1.26-8.68h-5.82v19.15c.18.13.41.37.69.48,1.65.67,3.32,1.31,4.97,1.97-1.72.72-3.39,1.79-5.18,2.07-2.28.36-4.69.33-6.97,0-1.3-.2-2.46-1.36-3.68-2.08,1.17-.61,2.32-1.29,3.54-1.79.57-.24,1.28-.15,2.21-.23v-19.54h-5.81c-.36,2.89-.72,5.76-1.07,8.63-.6.02-1.21.04-1.81.06Z"/>
      <path d="M1.38,921.56c.03-10.7,7.88-17.33,16.45-13.91,5.18,2.07,8.15,7.2,8.15,14.12,0,6.9-2.96,12.11-8.09,14.18-8.63,3.49-16.55-3.41-16.52-14.39ZM4.7,921.94c1.17,2.95,1.77,5.99,3.42,8.28,2.56,3.56,7.92,3.44,11,.29,3.77-3.85,3.68-13.9-.15-17.59-3.16-3.05-8.51-3.01-11,.62-1.6,2.33-2.14,5.38-3.27,8.4Z"/>
      <path d="M6.07,988.21v-17.89c-.85-.18-1.85-.18-2.59-.62-.73-.43-1.2-1.3-1.78-1.97.8-.64,1.59-1.8,2.4-1.82,4.47-.09,8.99-.29,13.39.3,5.28.71,7.78,3.99,7.69,8.78-.1,4.72-2.82,7.76-8.01,8.59-2.25.36-4.57.3-7.17.44-.1,1.78-.18,3.37-.29,5.34,1.48.16,2.8.1,3.96.5,1.05.37,1.92,1.24,2.88,1.89-.92.68-1.79,1.81-2.78,1.94-2.29.29-4.66.31-6.95.03-1.75-.22-3.41-1.07-5.11-1.64,1.28-1.14,2.56-2.28,4.37-3.89ZM10.07,968.84v12.07c3.96-1.35,7.35-2.19,10.34-3.78.69-.36.62-4.45-.11-4.82-3.01-1.52-6.41-2.27-10.23-3.48Z"/>
      <path d="M19.81,1262.87c-1.26-1.15-2.45-2.23-3.64-3.32,1.5-.59,2.98-1.61,4.5-1.68,5.52-.25,5.23-.25,3.29,4.63-.86,2.17-.27,4.93-.32,7.43-.05,2.5.06,5.01-.14,7.49-.5,6.08-3.81,9.27-9.53,9.37-5.78.1-9.77-3.39-10.21-9.36-.3-3.98-.07-7.99-.14-11.99-.02-1.12-.24-2.24-.47-3.34-.29-1.39-.68-2.76-1.02-4.14,2.89.23,5.79.47,8.68.7-.14.89-.05,1.92-.48,2.63-.78,1.29-2.73,2.43-2.69,3.58.17,5.24.51,10.54,1.64,15.63.25,1.13,4.15,2.36,6.01,1.94,1.75-.39,4.12-2.78,4.31-4.5.57-5.08.2-10.27.2-15.09Z"/>
      <path d="M3.52,1168.93v-9.01c.4-.13.79-.27,1.19-.4.75.93,1.62,1.79,2.25,2.8,2.35,3.79,6,4.23,9.6,2.98,1.63-.57,3.6-2.97,3.61-4.54,0-1.43-2.28-3.11-3.88-4.22-.98-.68-2.56-.51-3.87-.72-6.58-1.05-9.41-3.8-8.81-8.55.59-4.68,5.71-8.02,11.33-7.44,2.36.24,4.73.39,7.75.63.11,2.45.24,5.25.37,8.04-.54.18-1.08.36-1.62.54-.75-1.05-1.53-2.08-2.26-3.14-2.4-3.51-5.68-4.06-9.1-2.09-1.29.74-2.55,2.91-2.44,4.32.11,1.35,1.84,2.81,3.19,3.74,1.01.69,2.54.66,3.86.85,7.54,1.1,10.49,4.27,9.27,9.99-1.14,5.34-6.78,8.15-13.04,6.72-1.95-.45-4.03-.3-7.39-.51Z"/>
      <path d="M21.83,1565.99v11.81c-5.03,0-9.65.08-14.27-.03-4.11-.1-4.86-1.4-2.61-4.87,3.16-4.88,6.59-9.6,9.88-14.4.9-1.32,1.74-2.68,2.91-4.48h-9.04c-.42,2.27-.83,4.47-1.42,7.64-4.1-3.11-2.38-6.59-2.13-9.42.08-.92,2.41-2.18,3.81-2.34,3.12-.35,6.31-.17,9.47-.1,4.41.11,5.16,1.39,2.74,5.06-4.01,6.08-8.2,12.04-12.68,18.57h9.88c.54-2.48,1.1-5.06,1.66-7.64.6.06,1.21.12,1.81.18Z"/>
      <path d="M23.77,205.89v9.8c-.39.13-.79.26-1.18.39-.7-.93-1.21-2.15-2.13-2.75-2.07-1.34-4.27-3.16-6.54-3.34-3.89-.31-6.46,2.36-7.6,6-1.47,4.67-1.34,9.3,2.1,13.14,2.59,2.9,6,3.41,9.59,1.96,2.02-.82,3.96-1.85,6.31-2.96-.48,4.83-4.73,7.73-10.1,7.66-7-.1-12.5-5.57-12.58-13.39-.04-3.5.52-7.59,2.37-10.36,1.83-2.74,5.39-4.94,8.63-5.94,3.26-1,7.06-.22,11.14-.22Z"/>
      <path d="M158.54,1153.96c1.2-4.32,1.68-8.39,3.43-11.83,2.93-5.78,9.72-5.77,13.32-.41,3.71,5.54,3.6,19.05-.21,24.45-3.45,4.9-9.88,5.09-12.73-.16-1.98-3.66-2.6-8.05-3.81-12.04ZM174.61,1153.57c-.56-2.74-.74-5.66-1.84-8.17-.67-1.52-2.7-3.15-4.27-3.32-1.2-.13-3.7,1.87-3.8,3.07-.43,5.68-.5,11.42-.06,17.1.1,1.27,2.75,3.32,4.15,3.26,1.46-.06,3.46-1.98,4.11-3.54,1.04-2.55,1.17-5.47,1.72-8.38Z"/>
      <path d="M251.57,1562.77c1.14-4.16,1.6-8.06,3.24-11.39,3-6.09,10.34-6.38,13.46-.44,4.1,7.8,4.09,16.14-.11,23.93-2.93,5.44-10.04,5.45-12.93-.02-1.94-3.68-2.51-8.09-3.66-12.08ZM267.76,1562.75c-.76-3.15-1.06-6.39-2.34-9.18-1.76-3.85-5.88-3.82-7.59.05-2.68,6.05-2.61,12.41.05,18.43,1.7,3.86,5.83,3.8,7.58-.09,1.26-2.8,1.55-6.04,2.3-9.21Z"/>
      <path d="M189.56,1563.04c1.17-4.23,1.66-8.49,3.49-12.05,2.94-5.74,10.19-5.8,13.2-.08,4.11,7.81,4.09,16.13-.08,23.93-2.92,5.45-10,5.47-12.94.03-1.9-3.52-2.47-7.76-3.68-11.83ZM205.61,1562.79c-.56-2.83-.71-5.75-1.78-8.27-.66-1.54-2.73-3.41-4.17-3.42-1.42,0-3.97,2.07-4.08,3.39-.46,5.51-.46,11.11,0,16.63.11,1.32,2.66,3.39,4.08,3.38,1.44,0,3.52-1.88,4.17-3.43,1.07-2.53,1.23-5.45,1.78-8.28Z"/>
      <path d="M127.64,219.79c1.07-3.98,1.52-8.07,3.24-11.52,3.02-6.06,10.33-6.2,13.46-.22,4.01,7.66,3.92,15.83-.01,23.5-3.06,5.96-10.45,5.82-13.45-.23-1.71-3.46-2.16-7.54-3.23-11.53ZM143.71,219.87c-.69-3.01-1.04-6.21-2.22-9.05-.55-1.33-2.66-2.68-4.13-2.76-1.18-.07-3.07,1.51-3.61,2.8-2.48,5.92-2.43,12.05.03,17.97.53,1.27,2.47,2.82,3.65,2.74,1.47-.11,3.52-1.48,4.1-2.83,1.15-2.68,1.47-5.72,2.19-8.85Z"/>
      <path d="M158.54,219.98c1.19-4.32,1.68-8.4,3.42-11.84,2.92-5.79,9.71-5.8,13.31-.44,3.72,5.53,3.62,19.03-.19,24.45-3.45,4.91-9.88,5.11-12.73-.13-1.98-3.65-2.61-8.05-3.82-12.03ZM174.61,219.8c-.56-2.83-.71-5.75-1.78-8.28-.66-1.54-2.73-3.41-4.17-3.42-1.42,0-3.97,2.06-4.08,3.38-.46,5.51-.46,11.11,0,16.63.11,1.32,2.66,3.39,4.08,3.38,1.44,0,3.52-1.88,4.17-3.42,1.07-2.53,1.23-5.45,1.78-8.28Z"/>
      <path d="M189.6,219.81c1.12-4.09,1.6-8.17,3.32-11.62,2.91-5.81,9.68-5.87,13.31-.53,3.73,5.5,3.66,18.99-.12,24.45-3.53,5.08-10.19,5.1-13.03-.44-1.83-3.57-2.34-7.82-3.47-11.86ZM205.76,219.74c-.76-3.15-1.06-6.39-2.34-9.18-1.77-3.84-5.88-3.81-7.59.06-2.68,6.05-2.61,12.41.06,18.43,1.71,3.86,5.83,3.8,7.58-.1,1.26-2.8,1.55-6.04,2.3-9.21Z"/>
      <path d="M209.74,628.81c-1.14,4.01-1.67,8.26-3.51,11.83-2.95,5.73-10.22,5.74-13.21.02-4.01-7.66-3.99-15.83-.11-23.52,3.04-6.02,10.35-5.99,13.46.03,1.76,3.43,2.23,7.52,3.37,11.63ZM205.61,628.79c-.56-2.83-.71-5.75-1.78-8.27-.66-1.54-2.73-3.41-4.17-3.42-1.42,0-3.97,2.07-4.08,3.39-.46,5.51-.46,11.11,0,16.63.11,1.32,2.66,3.39,4.08,3.38,1.44,0,3.52-1.88,4.17-3.43,1.07-2.53,1.23-5.45,1.78-8.28Z"/>
      <path d="M220.6,1505.01c1.11-4.16,1.55-8.24,3.26-11.7,2.99-6.07,10.35-6.28,13.45-.3,4.05,7.82,4.06,16.15-.2,23.92-2.97,5.42-10.04,5.33-12.94-.15-1.87-3.54-2.41-7.79-3.57-11.77ZM236.61,1504.8c-.56-2.83-.71-5.75-1.78-8.28-.66-1.54-2.73-3.42-4.17-3.42-1.42,0-3.97,2.06-4.08,3.38-.46,5.51-.46,11.11,0,16.63.11,1.32,2.66,3.39,4.08,3.39,1.44,0,3.52-1.88,4.17-3.42,1.08-2.53,1.23-5.45,1.78-8.28Z"/>
      <path d="M189.6,1504.93c1.12-4.08,1.6-8.33,3.42-11.91,2.93-5.76,10.18-5.87,13.21-.16,4.13,7.8,4.12,16.13-.04,23.93-3.01,5.64-10.28,5.46-13.22-.3-1.75-3.43-2.24-7.51-3.38-11.58ZM205.71,1504.97c-.68-3.04-1.03-6.23-2.19-9.09-.55-1.35-2.62-2.73-4.09-2.83-1.18-.09-3.11,1.46-3.65,2.73-2.51,5.91-2.47,12.04-.03,17.97.53,1.28,2.42,2.87,3.6,2.81,1.47-.08,3.55-1.42,4.14-2.76,1.17-2.67,1.5-5.71,2.23-8.82Z"/>
      <path d="M127.6,628.82c1.12-4.1,1.59-8.18,3.32-11.63,2.91-5.82,9.67-5.88,13.31-.55,3.74,5.49,3.68,18.98-.11,24.45-3.53,5.09-10.18,5.12-13.03-.42-1.83-3.57-2.35-7.81-3.48-11.85ZM143.55,628.59c-.47-2.59-.5-5.4-1.57-7.73-.77-1.67-2.81-3.52-4.5-3.75-1.21-.16-3.84,2.13-3.96,3.5-.49,5.36-.56,10.81-.06,16.16.14,1.45,2.88,3.76,4.32,3.69,1.55-.08,3.58-2.25,4.31-3.97,1.01-2.37,1.01-5.17,1.46-7.91Z"/>
      <path d="M251.6,1446.03c1.11-4.16,1.55-8.24,3.25-11.71,2.99-6.08,10.35-6.29,13.45-.32,4.06,7.82,4.06,16.15-.19,23.92-2.97,5.42-10.04,5.35-12.94-.14-1.87-3.54-2.42-7.78-3.57-11.76ZM267.71,1445.9c-.7-3.18-1.01-6.21-2.13-8.91-.57-1.37-2.56-2.79-4.03-2.94-1.17-.12-3.18,1.37-3.71,2.62-2.59,6.08-2.68,12.4.06,18.42,1.74,3.83,5.84,3.74,7.58-.17,1.25-2.81,1.53-6.04,2.23-9.02Z"/>
      <path d="M220.6,1445.8c1.12-4.09,1.6-8.17,3.32-11.62,2.91-5.81,9.68-5.87,13.31-.53,3.73,5.49,3.67,18.99-.12,24.45-3.53,5.08-10.19,5.1-13.03-.44-1.83-3.57-2.34-7.82-3.47-11.86ZM236.71,1445.94c-.68-3.03-1.03-6.22-2.2-9.08-.55-1.34-2.63-2.71-4.1-2.81-1.18-.08-3.1,1.47-3.64,2.75-2.5,5.92-2.46,12.04-.02,17.97.53,1.28,2.43,2.86,3.62,2.79,1.47-.09,3.54-1.44,4.12-2.78,1.16-2.67,1.49-5.71,2.22-8.83Z"/>
      <path d="M127.64,803.79c1.07-3.98,1.52-8.07,3.24-11.52,3.02-6.06,10.33-6.19,13.46-.21,4.01,7.66,3.92,15.84-.01,23.5-3.06,5.96-10.45,5.81-13.45-.24-1.71-3.46-2.16-7.54-3.23-11.53ZM143.71,803.66c-.73-3.12-1.05-6.16-2.22-8.83-.58-1.34-2.65-2.69-4.12-2.78-1.18-.07-3.08,1.5-3.62,2.79-2.49,5.92-2.44,12.05.02,17.96.53,1.27,2.46,2.83,3.64,2.75,1.47-.1,3.55-1.47,4.1-2.81,1.17-2.86,1.52-6.05,2.2-9.08Z"/>
      <path d="M127.6,278.1c1.1-4.18,1.54-8.26,3.23-11.73,2.97-6.1,10.33-6.36,13.45-.41,4.09,7.81,4.08,16.14-.14,23.93-2.95,5.44-10.02,5.41-12.94-.05-1.89-3.53-2.44-7.77-3.61-11.73ZM143.81,278.02c-.8-3.26-1.14-6.66-2.48-9.6-1.67-3.63-5.65-3.66-7.32-.08-2.88,6.16-2.87,12.67-.03,18.85,1.66,3.62,5.6,3.63,7.33.04,1.33-2.76,1.68-5.99,2.51-9.22Z"/>
      <path d="M178.65,277.69c-1.02,3.88-1.39,8.04-3.24,11.38-1.21,2.18-4.51,4.29-6.95,4.39-2.19.08-5.46-2.12-6.55-4.21-3.82-7.31-3.79-15.19-.17-22.54,1.09-2.22,4.48-4.53,6.83-4.55,2.36-.02,5.65,2.25,6.91,4.45,1.81,3.17,2.14,7.18,3.17,11.09ZM174.76,277.89c-.75-3.18-1.04-6.42-2.29-9.22-1.75-3.91-5.83-3.98-7.59-.14-2.75,6.02-2.66,12.39-.07,18.43,1.67,3.89,5.81,3.94,7.59.1,1.29-2.78,1.59-6.02,2.36-9.16Z"/>
      <path d="M189.6,1446.09c1.1-4.18,1.54-8.26,3.23-11.73,2.97-6.1,10.34-6.35,13.45-.4,4.08,7.81,4.08,16.14-.15,23.93-2.95,5.44-10.02,5.4-12.94-.07-1.88-3.53-2.44-7.77-3.6-11.73ZM205.71,1445.88c-.69-3.02-1.04-6.21-2.22-9.06-.55-1.33-2.65-2.69-4.12-2.77-1.18-.07-3.08,1.51-3.62,2.79-2.48,5.92-2.44,12.05.02,17.97.53,1.27,2.46,2.83,3.64,2.75,1.47-.1,3.52-1.47,4.1-2.82,1.15-2.68,1.48-5.72,2.2-8.85Z"/>
      <path d="M240.69,277.88c-1.09,3.97-1.58,8.05-3.31,11.5-3.02,6.03-10.38,6.1-13.46.11-3.85-7.51-3.86-15.52-.17-23.08,3.07-6.3,10.55-6.33,13.7-.06,1.73,3.45,2.16,7.55,3.23,11.53ZM236.61,278.03c-.54-2.92-.67-5.84-1.72-8.38-.64-1.57-2.64-3.49-4.1-3.55-1.4-.06-4.06,1.98-4.15,3.25-.43,5.67-.37,11.42.06,17.1.09,1.2,2.59,3.2,3.79,3.07,1.57-.17,3.61-1.8,4.28-3.32,1.11-2.51,1.28-5.43,1.84-8.17Z"/>
      <path d="M251.6,278.09c1.1-4.18,1.54-8.26,3.23-11.73,2.97-6.09,10.34-6.35,13.45-.39,4.08,7.81,4.08,16.14-.15,23.93-2.95,5.44-10.02,5.4-12.94-.07-1.88-3.53-2.44-7.78-3.6-11.73ZM267.61,277.8c-.55-2.83-.71-5.75-1.78-8.28-.66-1.54-2.73-3.42-4.17-3.42-1.42,0-3.97,2.06-4.08,3.38-.46,5.51-.46,11.11,0,16.63.11,1.32,2.66,3.39,4.08,3.39,1.44,0,3.52-1.88,4.17-3.42,1.08-2.53,1.23-5.45,1.78-8.28Z"/>
      <path d="M127.56,102.73c1.2-4.13,1.74-8.37,3.61-11.91,2.9-5.49,9.5-5.35,13.03-.2,3.75,5.46,3.71,18.96-.06,24.45-3.51,5.11-10.17,5.17-13.03-.35-1.84-3.56-2.37-7.8-3.55-11.98ZM143.71,102.84c-.69-3.01-1.11-6.16-2.22-9.06-.48-1.26-2.45-2.82-3.63-2.74-1.47.11-3.53,1.48-4.1,2.83-2.52,5.9-2.44,12.04.03,17.96.53,1.27,2.48,2.81,3.66,2.72,1.47-.11,3.51-1.49,4.08-2.85,1.15-2.68,1.46-5.72,2.18-8.86Z"/>
      <path d="M158.6,1388.02c1.11-4.16,1.55-8.24,3.26-11.7,2.99-6.08,10.35-6.28,13.45-.31,4.05,7.82,4.06,16.15-.2,23.92-2.97,5.42-10.04,5.34-12.94-.15-1.87-3.54-2.41-7.78-3.57-11.77ZM174.81,1388.02c-.8-3.27-1.14-6.66-2.48-9.6-1.67-3.63-5.65-3.66-7.32-.08-2.88,6.16-2.87,12.67-.03,18.85,1.66,3.62,5.6,3.63,7.33.04,1.33-2.76,1.68-5.99,2.51-9.22Z"/>
      <path d="M251.56,629.05c1.17-4.24,1.66-8.49,3.49-12.06,2.94-5.75,10.19-5.82,13.2-.09,4.11,7.81,4.1,16.13-.07,23.93-2.91,5.45-10,5.48-12.94.05-1.9-3.52-2.47-7.76-3.69-11.83ZM267.71,628.9c-.7-3.18-1.01-6.21-2.13-8.91-.57-1.37-2.56-2.79-4.03-2.94-1.17-.12-3.18,1.37-3.71,2.62-2.59,6.08-2.68,12.4.06,18.42,1.74,3.83,5.84,3.74,7.58-.17,1.25-2.81,1.53-6.04,2.23-9.02Z"/>
      <path d="M271.65,1328.83c-1.03,3.92-1.37,7.93-3.16,11.11-1.25,2.21-4.51,4.51-6.86,4.5-2.35,0-5.76-2.3-6.86-4.5-3.65-7.34-3.66-15.21.03-22.6,3.12-6.25,10.59-6.23,13.71.07,1.71,3.46,2.14,7.55,3.16,11.42ZM267.71,1328.93c-.68-3.03-1.03-6.22-2.2-9.08-.55-1.34-2.63-2.71-4.1-2.81-1.18-.08-3.1,1.48-3.64,2.75-2.5,5.92-2.46,12.04-.01,17.97.53,1.28,2.44,2.85,3.62,2.78,1.47-.09,3.54-1.44,4.12-2.78,1.16-2.68,1.49-5.71,2.21-8.83Z"/>
      <path d="M158.6,1329.01c1.11-4.16,1.55-8.24,3.26-11.7,2.99-6.07,10.35-6.28,13.45-.3,4.05,7.82,4.06,16.15-.2,23.92-2.97,5.42-10.04,5.33-12.94-.15-1.87-3.54-2.41-7.79-3.57-11.77ZM174.61,1329.03c-.54-2.92-.67-5.84-1.72-8.38-.64-1.57-2.64-3.49-4.1-3.55-1.4-.06-4.06,1.98-4.15,3.25-.43,5.67-.37,11.42.06,17.1.09,1.2,2.59,3.2,3.79,3.07,1.57-.17,3.61-1.8,4.28-3.32,1.11-2.51,1.28-5.43,1.84-8.17Z"/>
      <path d="M127.56,687.06c1.17-4.24,1.66-8.49,3.49-12.06,2.94-5.75,10.19-5.82,13.21-.09,4.11,7.81,4.1,16.13-.07,23.93-2.91,5.45-10,5.48-12.94.05-1.9-3.52-2.47-7.76-3.69-11.83ZM143.66,687c-.63-3.04-.9-6.08-1.98-8.8-.56-1.41-2.51-3.07-3.89-3.13-1.35-.05-3.47,1.5-4.05,2.86-2.5,5.91-2.42,12.05.07,17.96.53,1.26,2.51,2.78,3.69,2.67,1.47-.13,3.48-1.53,4.06-2.89,1.14-2.69,1.45-5.73,2.11-8.66Z"/>
      <path d="M158.6,103.09c1.1-4.18,1.54-8.26,3.23-11.73,2.97-6.09,10.34-6.34,13.45-.39,4.08,7.81,4.08,16.14-.15,23.93-2.95,5.43-10.02,5.4-12.94-.07-1.88-3.53-2.44-7.78-3.6-11.74ZM174.71,102.84c-.69-3.01-1.11-6.16-2.22-9.06-.48-1.26-2.45-2.82-3.63-2.73-1.47.11-3.53,1.48-4.1,2.83-2.52,5.9-2.44,12.04.03,17.96.53,1.27,2.48,2.81,3.66,2.71,1.47-.11,3.5-1.5,4.08-2.85,1.15-2.68,1.46-5.72,2.18-8.87Z"/>
      <path d="M147.58,336.96c-.92,3.67-1.13,7.57-2.89,10.56-1.38,2.34-4.6,4.76-7.13,4.9-2.25.13-5.71-2.31-6.82-4.53-3.6-7.16-3.6-14.91-.05-22.1,1.1-2.23,4.51-4.72,6.76-4.63,2.54.1,5.89,2.45,7.21,4.78,1.8,3.16,2.01,7.22,2.92,11.02ZM143.76,337.21c-.73-3.27-1.07-6.46-2.24-9.32-.55-1.35-2.61-2.73-4.08-2.85-1.18-.09-3.13,1.45-3.66,2.72-2.53,6.09-2.64,12.41.16,18.41,1.68,3.61,5.6,3.66,7.34.08,1.33-2.76,1.69-5.99,2.48-9.04Z"/>
      <path d="M158.6,336.81c1.12-4.09,1.6-8.17,3.32-11.62,2.91-5.81,9.68-5.87,13.31-.53,3.73,5.5,3.66,18.99-.12,24.45-3.53,5.08-10.19,5.1-13.03-.44-1.83-3.57-2.34-7.82-3.47-11.86ZM174.71,336.85c-.69-3.01-1.05-6.2-2.23-9.05-.55-1.33-2.66-2.68-4.13-2.75-1.18-.06-3.07,1.52-3.6,2.81-2.48,5.92-2.43,12.05.04,17.97.53,1.27,2.47,2.82,3.65,2.73,1.47-.11,3.51-1.49,4.09-2.84,1.15-2.68,1.47-5.72,2.19-8.86Z"/>
      <path d="M220.56,1270.72c1.2-4.12,1.74-8.37,3.61-11.91,2.9-5.49,9.5-5.34,13.03-.2,3.75,5.46,3.71,18.96-.06,24.45-3.51,5.1-10.17,5.16-13.03-.36-1.84-3.56-2.37-7.81-3.55-11.99ZM236.76,1271.22c-.73-3.27-1.07-6.46-2.24-9.32-.55-1.35-2.61-2.73-4.08-2.85-1.18-.09-3.13,1.45-3.66,2.72-2.53,6.09-2.64,12.41.16,18.41,1.68,3.61,5.6,3.66,7.34.08,1.33-2.76,1.69-5.99,2.48-9.04Z"/>
      <path d="M220.54,336.95c1.2-4.32,1.68-8.39,3.43-11.83,2.93-5.78,9.72-5.77,13.32-.4,3.71,5.54,3.59,19.05-.21,24.45-3.46,4.9-9.88,5.09-12.73-.17-1.98-3.66-2.6-8.05-3.8-12.05ZM236.76,336.89c-.75-3.18-1.04-6.42-2.29-9.22-1.75-3.91-5.83-3.98-7.59-.14-2.75,6.02-2.66,12.39-.07,18.43,1.67,3.89,5.81,3.94,7.59.1,1.29-2.78,1.59-6.02,2.36-9.16Z"/>
      <path d="M158.6,1271.09c1.1-4.18,1.54-8.26,3.23-11.73,2.97-6.09,10.34-6.35,13.45-.39,4.08,7.81,4.08,16.14-.15,23.93-2.95,5.44-10.02,5.4-12.94-.07-1.88-3.53-2.44-7.78-3.6-11.73ZM174.71,1270.93c-.68-3.03-1.03-6.22-2.2-9.08-.55-1.34-2.63-2.71-4.1-2.81-1.18-.08-3.1,1.48-3.64,2.75-2.5,5.92-2.46,12.04-.01,17.97.53,1.28,2.44,2.85,3.62,2.78,1.47-.09,3.54-1.44,4.12-2.78,1.16-2.68,1.49-5.71,2.21-8.83Z"/>
      <path d="M189.56,103.05c1.17-4.24,1.66-8.49,3.49-12.06,2.94-5.75,10.19-5.82,13.2-.09,4.11,7.81,4.1,16.13-.07,23.93-2.91,5.45-10,5.48-12.94.05-1.9-3.52-2.47-7.76-3.69-11.83ZM205.76,103.21c-.73-3.27-1.07-6.46-2.24-9.32-.55-1.35-2.61-2.73-4.08-2.85-1.18-.09-3.13,1.45-3.66,2.72-2.53,6.09-2.64,12.41.16,18.41,1.68,3.61,5.6,3.66,7.34.07,1.33-2.76,1.69-5.99,2.48-9.04Z"/>
      <path d="M251.54,1212.95c1.2-4.32,1.68-8.39,3.43-11.83,2.93-5.78,9.72-5.77,13.32-.4,3.71,5.54,3.59,19.05-.21,24.45-3.46,4.9-9.88,5.09-12.73-.17-1.98-3.66-2.6-8.05-3.8-12.05ZM267.71,1212.9c-.71-3.17-1.01-6.21-2.13-8.91-.57-1.37-2.56-2.79-4.03-2.94-1.17-.12-3.18,1.38-3.71,2.63-2.59,6.08-2.68,12.4.06,18.42,1.74,3.83,5.84,3.74,7.58-.18,1.25-2.81,1.53-6.04,2.23-9.02Z"/>
      <path d="M220.54,1212.9c1.2-4.3,1.69-8.38,3.45-11.81,2.94-5.76,9.74-5.72,13.32-.33,3.7,5.57,3.56,19.08-.26,24.45-3.47,4.87-9.9,5.03-12.73-.23-1.97-3.66-2.58-8.06-3.78-12.07ZM236.71,1212.9c-.71-3.17-1.01-6.21-2.13-8.91-.57-1.37-2.56-2.79-4.03-2.94-1.17-.12-3.18,1.38-3.71,2.63-2.58,6.08-2.68,12.4.06,18.42,1.74,3.83,5.84,3.74,7.58-.17,1.25-2.81,1.53-6.04,2.23-9.02Z"/>
      <path d="M158.6,1213.09c1.1-4.18,1.54-8.26,3.23-11.73,2.97-6.1,10.34-6.35,13.45-.4,4.08,7.81,4.08,16.14-.15,23.93-2.95,5.44-10.02,5.4-12.94-.07-1.88-3.53-2.44-7.77-3.6-11.73ZM174.76,1212.75c-.76-3.15-1.06-6.39-2.34-9.18-1.76-3.85-5.88-3.82-7.59.05-2.68,6.05-2.61,12.41.05,18.43,1.7,3.86,5.83,3.8,7.58-.09,1.26-2.8,1.55-6.04,2.3-9.21Z"/>
      <path d="M220.54,102.89c1.2-4.3,1.69-8.38,3.45-11.81,2.94-5.76,9.74-5.71,13.32-.33,3.7,5.57,3.56,19.08-.26,24.45-3.47,4.87-9.9,5.02-12.73-.24-1.97-3.67-2.58-8.06-3.78-12.07ZM236.81,103.02c-.8-3.26-1.14-6.66-2.48-9.6-1.67-3.63-5.65-3.66-7.32-.08-2.88,6.16-2.87,12.67-.03,18.85,1.66,3.62,5.6,3.63,7.33.04,1.33-2.76,1.68-5.99,2.51-9.22Z"/>
      <path d="M127.6,394.95c1.12-4.08,1.6-8.33,3.42-11.91,2.93-5.76,10.17-5.88,13.2-.18,4.14,7.8,4.13,16.13-.02,23.93-3,5.65-10.28,5.48-13.22-.28-1.75-3.43-2.25-7.51-3.38-11.57ZM143.76,394.74c-.76-3.15-1.06-6.39-2.34-9.18-1.77-3.84-5.88-3.81-7.59.06-2.68,6.05-2.61,12.41.06,18.43,1.71,3.86,5.83,3.8,7.58-.1,1.26-2.8,1.55-6.04,2.3-9.21Z"/>
      <path d="M158.6,395.12c1.1-4.19,1.53-8.27,3.22-11.74,2.97-6.11,10.33-6.38,13.45-.44,4.1,7.81,4.08,16.14-.12,23.93-2.94,5.44-10.02,5.43-12.94-.03-1.89-3.53-2.45-7.77-3.61-11.72ZM174.66,395.01c-.63-3.05-.9-6.09-1.98-8.81-.56-1.41-2.5-3.08-3.89-3.14-1.35-.06-3.48,1.49-4.05,2.85-2.51,5.91-2.43,12.05.06,17.96.53,1.26,2.5,2.78,3.68,2.68,1.47-.13,3.49-1.53,4.06-2.88,1.14-2.69,1.45-5.73,2.11-8.66Z"/>
      <path d="M189.6,1153.83c1.12-4.1,1.59-8.18,3.32-11.63,2.91-5.82,9.67-5.89,13.3-.56,3.74,5.48,3.68,18.98-.1,24.45-3.52,5.09-10.18,5.12-13.03-.41-1.84-3.57-2.35-7.81-3.48-11.85ZM205.76,1153.9c-.75-3.18-1.04-6.42-2.29-9.23-1.74-3.91-5.84-3.98-7.59-.15-2.75,6.02-2.66,12.39-.07,18.43,1.67,3.89,5.81,3.94,7.59.11,1.29-2.78,1.59-6.02,2.36-9.16Z"/>
      <path d="M189.6,686.8c1.12-4.09,1.6-8.17,3.32-11.62,2.91-5.81,9.68-5.87,13.31-.53,3.73,5.49,3.67,18.99-.12,24.45-3.53,5.08-10.19,5.1-13.03-.44-1.83-3.57-2.34-7.82-3.47-11.86ZM205.66,687.02c-.63-3.05-.9-6.09-1.97-8.81-.56-1.41-2.5-3.08-3.88-3.14-1.35-.06-3.48,1.49-4.06,2.84-2.51,5.91-2.43,12.05.05,17.96.53,1.26,2.5,2.79,3.68,2.69,1.47-.13,3.49-1.52,4.07-2.88,1.14-2.69,1.45-5.73,2.12-8.66Z"/>
      <path d="M251.6,395.12c1.1-4.19,1.53-8.27,3.22-11.74,2.97-6.1,10.33-6.38,13.45-.43,4.1,7.81,4.08,16.14-.12,23.93-2.94,5.44-10.02,5.43-12.94-.03-1.89-3.53-2.45-7.77-3.61-11.72ZM267.61,395.03c-.54-2.92-.67-5.84-1.72-8.38-.64-1.57-2.64-3.49-4.1-3.55-1.4-.06-4.06,1.98-4.15,3.25-.43,5.67-.37,11.42.06,17.1.09,1.2,2.59,3.2,3.79,3.07,1.57-.17,3.61-1.8,4.28-3.32,1.11-2.51,1.28-5.43,1.84-8.17Z"/>
      <path d="M251.6,1095.84c1.12-4.11,1.59-8.18,3.31-11.63,2.91-5.83,9.66-5.9,13.3-.57,3.74,5.48,3.69,18.98-.09,24.45-3.52,5.09-10.18,5.14-13.03-.4-1.84-3.56-2.36-7.81-3.49-11.84ZM267.58,1095.77c-.5-2.75-.52-5.56-1.59-7.9-.76-1.67-2.8-3.53-4.48-3.77-1.2-.17-3.87,2.13-3.97,3.48-.43,5.52-.4,11.12.09,16.63.12,1.3,2.74,3.33,4.14,3.28,1.46-.05,3.47-1.96,4.12-3.52,1.05-2.54,1.18-5.46,1.7-8.2Z"/>
      <path d="M189.6,1095.93c1.12-4.08,1.6-8.33,3.42-11.91,2.93-5.76,10.18-5.87,13.21-.16,4.13,7.8,4.12,16.13-.04,23.93-3.01,5.64-10.28,5.46-13.22-.3-1.75-3.43-2.24-7.51-3.38-11.58ZM205.71,1095.89c-.71-3.17-1.01-6.21-2.14-8.91-.57-1.37-2.56-2.79-4.03-2.94-1.17-.12-3.18,1.38-3.71,2.63-2.58,6.08-2.67,12.4.07,18.42,1.75,3.83,5.84,3.73,7.58-.18,1.25-2.81,1.53-6.04,2.23-9.02Z"/>
      <path d="M158.64,1095.79c1.07-3.98,1.52-8.07,3.24-11.52,3.02-6.06,10.33-6.19,13.46-.21,4.01,7.66,3.92,15.84-.01,23.5-3.06,5.96-10.45,5.81-13.45-.24-1.71-3.46-2.16-7.54-3.23-11.53ZM174.71,1095.84c-.69-3.01-1.11-6.16-2.22-9.06-.48-1.26-2.45-2.82-3.63-2.74-1.47.11-3.53,1.48-4.1,2.83-2.52,5.9-2.44,12.04.03,17.96.53,1.27,2.48,2.81,3.66,2.72,1.47-.11,3.51-1.49,4.08-2.85,1.15-2.68,1.46-5.72,2.18-8.86Z"/>
      <path d="M271.69,160.95c-1.1,3.95-1.59,8.03-3.33,11.48-3.03,6-10.4,6.02-13.46.01-3.82-7.52-3.83-15.53-.11-23.08,3.08-6.27,10.58-6.25,13.7.04,1.72,3.46,2.14,7.55,3.2,11.55ZM267.71,160.9c-.7-3.18-1.01-6.21-2.13-8.91-.57-1.37-2.56-2.79-4.03-2.94-1.17-.12-3.18,1.37-3.71,2.62-2.59,6.08-2.68,12.4.06,18.42,1.74,3.83,5.84,3.74,7.58-.17,1.25-2.81,1.53-6.04,2.23-9.02Z"/>
      <path d="M220.6,1036.84c1.12-4.11,1.59-8.18,3.31-11.63,2.91-5.83,9.66-5.9,13.3-.57,3.74,5.48,3.69,18.98-.09,24.45-3.52,5.09-10.18,5.13-13.03-.4-1.84-3.56-2.35-7.81-3.49-11.84ZM236.71,1036.94c-.68-3.03-1.03-6.22-2.2-9.08-.55-1.34-2.63-2.71-4.1-2.81-1.18-.08-3.1,1.47-3.64,2.75-2.5,5.92-2.46,12.04-.01,17.97.53,1.28,2.43,2.86,3.62,2.79,1.47-.09,3.54-1.44,4.12-2.78,1.16-2.67,1.49-5.71,2.22-8.83Z"/>
      <path d="M127.6,453.05c1.1-4.17,1.55-8.25,3.25-11.71,2.98-6.08,10.35-6.31,13.45-.34,4.07,7.82,4.07,16.15-.18,23.92-2.96,5.43-10.03,5.37-12.94-.11-1.88-3.54-2.43-7.78-3.58-11.75ZM143.71,452.7c-.7-2.98-.98-6.21-2.23-9.02-1.74-3.91-5.83-4-7.58-.18-2.76,6.02-2.58,12.34-.06,18.42.52,1.25,2.54,2.75,3.71,2.63,1.47-.15,3.46-1.57,4.03-2.94,1.13-2.69,1.43-5.73,2.13-8.91Z"/>
      <path d="M178.74,452.79c-1.13,4.02-1.66,8.26-3.5,11.84-2.95,5.74-10.21,5.77-13.21.06-4.03-7.65-3.99-15.82-.13-23.52,3.03-6.03,10.35-6.02,13.46,0,1.77,3.42,2.24,7.52,3.38,11.63ZM174.71,452.84c-.69-3.01-1.11-6.16-2.22-9.06-.48-1.26-2.45-2.82-3.63-2.73-1.47.11-3.53,1.48-4.1,2.83-2.52,5.9-2.44,12.04.03,17.96.53,1.27,2.48,2.81,3.66,2.71,1.47-.11,3.5-1.5,4.08-2.85,1.15-2.68,1.46-5.72,2.18-8.87Z"/>
      <path d="M189.54,1037.03c1.19-4.34,1.67-8.41,3.4-11.86,2.92-5.8,9.69-5.84,13.31-.49,3.73,5.51,3.64,19.01-.15,24.45-3.43,4.92-9.86,5.15-12.73-.08-1.99-3.65-2.62-8.04-3.84-12.01ZM205.61,1036.75c-.56-2.81-.71-5.73-1.79-8.26-.66-1.54-2.75-3.4-4.19-3.4-1.42,0-3.95,2.08-4.06,3.41-.46,5.52-.45,11.11.02,16.63.11,1.32,2.68,3.38,4.09,3.36,1.45-.02,3.51-1.9,4.16-3.45,1.07-2.53,1.22-5.45,1.77-8.3Z"/>
      <path d="M158.54,1036.95c1.2-4.32,1.68-8.39,3.43-11.83,2.93-5.78,9.72-5.77,13.32-.4,3.71,5.54,3.59,19.05-.21,24.45-3.46,4.9-9.88,5.09-12.73-.17-1.98-3.66-2.6-8.05-3.8-12.05ZM174.81,1037.03c-.8-3.27-1.13-6.67-2.48-9.6-1.67-3.63-5.65-3.67-7.32-.09-2.89,6.16-2.87,12.67-.04,18.85,1.66,3.62,5.6,3.64,7.33.05,1.33-2.76,1.68-5.99,2.51-9.21Z"/>
      <path d="M271.74,978.78c-1.13,4.02-1.66,8.27-3.49,11.84-2.95,5.74-10.2,5.78-13.21.07-4.03-7.65-4-15.82-.14-23.52,3.02-6.03,10.34-6.03,13.46-.02,1.77,3.42,2.24,7.52,3.39,11.62ZM267.61,978.75c-.56-2.81-.71-5.73-1.79-8.26-.66-1.54-2.75-3.4-4.19-3.4-1.42,0-3.95,2.08-4.06,3.41-.46,5.52-.45,11.11.02,16.63.11,1.32,2.68,3.38,4.09,3.36,1.45-.02,3.51-1.9,4.16-3.45,1.07-2.53,1.22-5.45,1.77-8.3Z"/>
      <path d="M220.54,978.88c1.2-4.29,1.7-8.37,3.45-11.8,2.95-5.76,9.74-5.7,13.32-.31,3.7,5.58,3.55,19.09-.27,24.45-3.47,4.87-9.91,5.01-12.73-.25-1.96-3.67-2.57-8.06-3.77-12.08ZM236.71,978.7c-.7-2.98-.98-6.21-2.23-9.02-1.74-3.91-5.83-4-7.58-.18-2.76,6.02-2.58,12.34-.06,18.42.52,1.25,2.54,2.75,3.71,2.63,1.47-.15,3.46-1.57,4.03-2.94,1.13-2.69,1.43-5.73,2.13-8.91Z"/>
      <path d="M209.69,978.95c-1.1,3.95-1.59,8.03-3.33,11.48-3.03,6-10.4,6.02-13.46.01-3.82-7.52-3.83-15.53-.11-23.08,3.08-6.27,10.58-6.25,13.7.04,1.72,3.46,2.14,7.55,3.2,11.55ZM205.76,978.59c-.78-3.11-1.11-6.34-2.4-9.12-1.69-3.64-5.63-3.74-7.33-.18-2.94,6.15-2.89,12.67-.09,18.85,1.73,3.82,5.85,3.65,7.57-.29,1.23-2.82,1.51-6.05,2.25-9.26Z"/>
      <path d="M178.74,978.8c-1.14,4.01-1.66,8.26-3.5,11.83-2.95,5.73-10.22,5.75-13.21.04-4.02-7.66-3.99-15.83-.12-23.52,3.03-6.02,10.35-6,13.46.02,1.77,3.43,2.24,7.52,3.38,11.63ZM174.71,978.89c-.71-3.17-1.01-6.21-2.14-8.91-.57-1.37-2.56-2.79-4.03-2.94-1.17-.12-3.18,1.38-3.71,2.63-2.58,6.08-2.67,12.4.07,18.42,1.75,3.83,5.84,3.73,7.58-.18,1.25-2.81,1.53-6.04,2.23-9.02Z"/>
      <path d="M127.64,920.79c1.07-3.98,1.52-8.07,3.24-11.52,3.02-6.06,10.33-6.19,13.46-.21,4.01,7.66,3.92,15.84-.01,23.5-3.06,5.96-10.45,5.81-13.45-.24-1.71-3.46-2.16-7.54-3.23-11.53ZM143.71,920.7c-.7-2.98-.98-6.21-2.23-9.02-1.74-3.91-5.83-4-7.58-.18-2.76,6.02-2.58,12.34-.06,18.42.52,1.25,2.54,2.75,3.71,2.63,1.47-.15,3.46-1.57,4.03-2.94,1.13-2.69,1.43-5.73,2.13-8.91Z"/>
      <path d="M127.6,511.92c1.12-4.07,1.61-8.33,3.43-11.9,2.93-5.76,10.18-5.86,13.2-.14,4.13,7.8,4.12,16.14-.04,23.93-3.01,5.64-10.28,5.45-13.22-.31-1.75-3.44-2.24-7.51-3.37-11.58ZM143.71,511.93c-.68-3.03-1.03-6.22-2.2-9.08-.55-1.34-2.63-2.71-4.1-2.81-1.18-.08-3.1,1.48-3.64,2.75-2.5,5.92-2.46,12.04-.01,17.97.53,1.28,2.44,2.85,3.62,2.78,1.47-.09,3.54-1.44,4.12-2.78,1.16-2.68,1.49-5.71,2.21-8.83Z"/>
      <path d="M251.54,861.94c1.2-4.31,1.68-8.39,3.43-11.83,2.93-5.77,9.73-5.76,13.32-.39,3.71,5.55,3.59,19.06-.22,24.45-3.46,4.9-9.89,5.08-12.73-.18-1.98-3.66-2.59-8.05-3.8-12.05ZM267.71,861.72c-.7-2.98-.98-6.21-2.23-9.02-1.74-3.92-5.83-4.01-7.58-.19-2.76,6.02-2.58,12.34-.07,18.42.52,1.25,2.53,2.75,3.71,2.63,1.47-.15,3.46-1.56,4.04-2.93,1.13-2.69,1.43-5.73,2.14-8.9Z"/>
      <path d="M189.54,512.03c1.19-4.34,1.67-8.41,3.4-11.86,2.92-5.8,9.69-5.84,13.31-.49,3.73,5.51,3.64,19.01-.15,24.45-3.43,4.92-9.86,5.15-12.73-.08-1.99-3.65-2.62-8.04-3.84-12.01ZM205.71,512.14c-.67-3.08-.99-6.27-2.13-9.14-.54-1.37-2.55-2.79-4.02-2.95-1.17-.12-3.18,1.37-3.72,2.62-2.6,6.07-2.68,12.4.05,18.42,1.74,3.84,5.81,3.75,7.59-.15,1.21-2.65,1.49-5.72,2.23-8.79Z"/>
      <path d="M220.54,511.96c1.2-4.32,1.68-8.39,3.43-11.83,2.93-5.78,9.72-5.77,13.32-.41,3.71,5.54,3.6,19.05-.21,24.45-3.45,4.9-9.88,5.09-12.73-.16-1.98-3.66-2.6-8.05-3.81-12.04ZM236.76,511.86c-.75-3.17-1.04-6.41-2.3-9.21-1.75-3.9-5.84-3.95-7.59-.1-2.73,6.03-2.65,12.39-.04,18.43,1.68,3.88,5.82,3.9,7.59.06,1.28-2.79,1.58-6.03,2.34-9.18Z"/>
      <path d="M271.69,511.71c-1.08,4-1.55,8.08-3.24,11.55-2.96,6.06-10.37,6.27-13.45.35-3.99-7.66-3.97-15.84-.06-23.52,3.05-5.99,10.38-5.9,13.46.13,1.75,3.44,2.21,7.53,3.3,11.48ZM267.71,511.9c-.7-3.18-1.01-6.22-2.13-8.91-.57-1.37-2.55-2.79-4.03-2.95-1.17-.12-3.18,1.37-3.72,2.62-2.59,6.07-2.68,12.4.06,18.42,1.74,3.83,5.84,3.75,7.58-.16,1.25-2.81,1.54-6.04,2.23-9.02Z"/>
      <path d="M189.54,160.93c1.2-4.31,1.69-8.39,3.43-11.82,2.93-5.77,9.73-5.75,13.32-.38,3.71,5.55,3.58,19.06-.23,24.45-3.46,4.89-9.89,5.07-12.73-.19-1.97-3.66-2.59-8.05-3.79-12.06ZM205.76,160.75c-.76-3.15-1.06-6.39-2.34-9.18-1.76-3.85-5.88-3.82-7.59.04-2.69,6.04-2.61,12.41.05,18.43,1.7,3.86,5.83,3.81,7.58-.08,1.26-2.8,1.55-6.04,2.3-9.21Z"/>
      <path d="M147.69,861.71c-1.08,4-1.55,8.08-3.24,11.55-2.96,6.06-10.37,6.27-13.45.35-3.99-7.66-3.97-15.84-.06-23.52,3.05-5.99,10.38-5.9,13.46.13,1.75,3.44,2.21,7.53,3.3,11.48ZM143.71,861.94c-.68-3.03-1.03-6.22-2.2-9.08-.55-1.34-2.63-2.71-4.1-2.81-1.18-.08-3.1,1.47-3.64,2.75-2.5,5.92-2.46,12.04-.02,17.96.53,1.28,2.43,2.86,3.62,2.79,1.47-.09,3.54-1.44,4.12-2.78,1.16-2.67,1.49-5.71,2.22-8.83Z"/>
      <path d="M127.6,160.84c1.12-4.11,1.59-8.18,3.31-11.63,2.91-5.83,9.66-5.9,13.3-.57,3.74,5.48,3.69,18.98-.09,24.45-3.52,5.09-10.18,5.13-13.03-.4-1.84-3.56-2.36-7.81-3.49-11.84ZM143.71,160.84c-.69-3.01-1.11-6.16-2.22-9.06-.48-1.26-2.45-2.82-3.63-2.73-1.47.11-3.53,1.48-4.1,2.83-2.52,5.9-2.44,12.04.03,17.96.53,1.27,2.48,2.81,3.66,2.71,1.47-.11,3.5-1.5,4.08-2.85,1.15-2.68,1.46-5.72,2.18-8.87Z"/>
      <path d="M220.6,804.05c1.1-4.17,1.55-8.25,3.25-11.71,2.98-6.08,10.35-6.31,13.45-.34,4.07,7.82,4.07,16.15-.18,23.92-2.96,5.43-10.03,5.37-12.94-.11-1.88-3.54-2.43-7.78-3.58-11.75ZM236.76,803.81c-.76-3.16-1.05-6.4-2.32-9.2-1.76-3.87-5.86-3.88-7.59-.03-2.71,6.04-2.63,12.4,0,18.43,1.69,3.87,5.83,3.86,7.59,0,1.27-2.79,1.56-6.03,2.32-9.19Z"/>
      <path d="M158.64,160.8c1.07-3.99,1.52-8.07,3.24-11.52,3.01-6.06,10.33-6.2,13.46-.22,4.01,7.66,3.92,15.83,0,23.5-3.06,5.96-10.45,5.82-13.45-.23-1.72-3.46-2.17-7.54-3.24-11.53ZM174.71,160.9c-.7-3.17-1.01-6.21-2.13-8.91-.57-1.37-2.56-2.79-4.03-2.94-1.17-.12-3.18,1.38-3.71,2.63-2.58,6.08-2.68,12.4.06,18.42,1.74,3.83,5.84,3.74,7.58-.17,1.25-2.81,1.53-6.04,2.23-9.02Z"/>
      <path d="M251.6,745.07c1.1-4.17,1.54-8.25,3.24-11.72,2.98-6.09,10.34-6.33,13.45-.36,4.07,7.81,4.07,16.15-.17,23.92-2.96,5.43-10.03,5.38-12.94-.09-1.88-3.54-2.43-7.78-3.59-11.75ZM267.71,744.87c-.69-3.01-1.04-6.2-2.23-9.05-.55-1.33-2.66-2.68-4.13-2.76-1.18-.07-3.07,1.52-3.61,2.8-2.48,5.92-2.43,12.05.03,17.97.53,1.27,2.47,2.82,3.65,2.74,1.47-.11,3.52-1.48,4.09-2.83,1.15-2.68,1.47-5.72,2.19-8.86Z"/>
      <path d="M127.64,569.81c1.07-3.99,1.52-8.07,3.24-11.53,3.01-6.06,10.33-6.21,13.46-.23,4.01,7.66,3.92,15.83,0,23.5-3.05,5.97-10.44,5.84-13.45-.22-1.72-3.45-2.17-7.54-3.24-11.52ZM143.76,569.89c-.75-3.18-1.04-6.42-2.29-9.22-1.75-3.91-5.83-3.98-7.59-.14-2.75,6.02-2.66,12.39-.07,18.43,1.67,3.89,5.81,3.94,7.59.1,1.29-2.78,1.59-6.02,2.36-9.16Z"/>
      <path d="M220.64,744.81c1.07-3.99,1.52-8.07,3.24-11.53,3.01-6.06,10.33-6.21,13.46-.23,4.01,7.66,3.92,15.83,0,23.5-3.05,5.97-10.44,5.84-13.45-.22-1.72-3.45-2.17-7.54-3.24-11.52ZM236.71,744.87c-.69-3.01-1.04-6.21-2.22-9.05-.55-1.33-2.66-2.68-4.13-2.76-1.18-.07-3.07,1.51-3.61,2.8-2.48,5.92-2.43,12.05.03,17.97.53,1.27,2.47,2.82,3.65,2.74,1.47-.11,3.52-1.48,4.1-2.83,1.15-2.68,1.47-5.72,2.19-8.85Z"/>
      <path d="M189.54,569.92c1.2-4.3,1.69-8.38,3.44-11.82,2.94-5.77,9.73-5.73,13.32-.36,3.71,5.56,3.57,19.07-.24,24.45-3.46,4.88-9.89,5.05-12.73-.21-1.97-3.66-2.58-8.06-3.79-12.06ZM205.76,569.86c-.75-3.17-1.04-6.41-2.3-9.21-1.75-3.9-5.84-3.95-7.59-.1-2.73,6.03-2.65,12.39-.04,18.43,1.68,3.88,5.82,3.9,7.59.06,1.28-2.79,1.58-6.03,2.34-9.18Z"/>
      <path d="M220.6,570.03c1.11-4.16,1.55-8.24,3.25-11.71,2.99-6.08,10.35-6.29,13.45-.32,4.06,7.82,4.06,16.15-.19,23.92-2.97,5.42-10.04,5.35-12.94-.14-1.87-3.54-2.42-7.78-3.57-11.76ZM236.61,569.57c-.56-2.74-.74-5.66-1.84-8.17-.67-1.52-2.7-3.15-4.27-3.32-1.2-.13-3.7,1.87-3.8,3.07-.43,5.68-.5,11.42-.06,17.1.1,1.27,2.75,3.32,4.15,3.26,1.46-.06,3.46-1.98,4.11-3.54,1.04-2.55,1.17-5.47,1.72-8.38Z"/>
      <path d="M127.54,744.96c1.2-4.32,1.68-8.39,3.43-11.83,2.93-5.78,9.72-5.77,13.32-.41,3.71,5.54,3.6,19.05-.21,24.45-3.45,4.9-9.88,5.09-12.73-.16-1.98-3.66-2.6-8.05-3.81-12.04ZM143.76,744.9c-.75-3.18-1.04-6.42-2.29-9.23-1.74-3.91-5.84-3.98-7.59-.15-2.75,6.02-2.66,12.39-.07,18.43,1.67,3.89,5.81,3.94,7.59.11,1.29-2.78,1.59-6.02,2.36-9.16Z"/>
      <path d="M15.67,1515.66c1.19.06,2.1-.11,2.8.2,1.05.46,1.94,1.25,2.91,1.9-1.1.68-2.15,1.84-3.31,1.95-2.96.28-5.99.28-8.95,0-1.17-.11-2.24-1.23-3.36-1.9,1.11-.67,2.18-1.42,3.35-1.97.55-.26,1.29-.13,2.13-.2,2.06-8.47-3.48-13.87-7.77-19.76-.67-.92-1.28-1.87-1.91-2.81.97-.42,1.9-1,2.91-1.22.95-.21,2.02-.21,2.97,0,1.35.28,2.65.83,3.97,1.27-.71,1.23-1.42,2.47-2.37,4.11,1.27,2.15,2.85,4.82,4.78,8.09,1.63-2.68,2.95-4.71,4.1-6.83.39-.72.52-1.68.45-2.51-.11-1.35-.47-2.67-.73-4.01,2.57.21,5.13.42,7.7.64-.54,1.1-.96,2.28-1.65,3.29-4,5.89-9.59,11.1-8.03,19.78Z"/>
      <path d="M6.56,1321.04c2.23,5.59,4.56,11.43,7.31,18.33,2.69-6.91,4.99-12.8,7.46-19.13-1.14-.19-2.06-.2-2.86-.52-.68-.27-1.55-.78-1.75-1.38-.2-.6.31-2.07.55-2.08,3.1-.11,6.21-.08,9.3.11.18.01.64,1.84.33,2.52-2.59,5.6-5.22,11.19-8.08,16.65-1.5,2.87-3.48,5.49-5.24,8.22-1.67-2.68-3.53-5.26-4.98-8.05-2.84-5.47-5.52-11.03-8.1-16.63-.36-.78.18-2.88.38-2.89,2.95-.15,5.91-.09,8.85.08.3.02.9,1.43.75,1.57-1.06,1.03-2.27,1.89-3.93,3.2Z"/>
      <path d="M10.26,735.98v19.55h11.78c.25-2.92.5-5.75.75-8.58,4.24,3.13,2.38,7.31,2.48,10.99.02.58-3.09,1.68-4.8,1.78-4.64.25-9.31.25-13.96,0-1.87-.1-3.7-1.09-5.55-1.67,1.52-1.08,3.04-2.17,5.29-3.77v-18.24c-1.13-.1-2.2.05-3.03-.33-.88-.41-1.52-1.33-2.26-2.03.81-.62,1.59-1.74,2.43-1.79,3.48-.2,6.99-.23,10.46,0,.94.06,1.8,1.29,2.7,1.98-.8.63-1.52,1.52-2.44,1.83-1.05.35-2.28.18-3.86.26Z"/>
      <path d="M57.31,5.07v19.45h11.87c.16-2.99.3-5.73.44-8.47.41-.15.82-.31,1.23-.46.56.86,1.24,1.67,1.64,2.6.24.56.07,1.31.06,1.98-.1,10.13,1.03,8.49-8.3,8.62-4.16.06-8.32.16-12.46-.08-1.31-.08-2.56-1.22-3.84-1.88,1.27-.69,2.53-1.4,3.82-2.05.41-.21.9-.26,1.52-.43V5.12c-.81-.11-1.68-.01-2.3-.37-1.09-.62-2.03-1.51-3.03-2.29,1.05-.55,2.06-1.51,3.14-1.59,2.98-.22,5.99-.25,8.97,0,1.2.1,2.32,1.12,3.48,1.72-1.04.73-2.01,1.63-3.15,2.13-.85.37-1.93.23-3.08.33Z"/>
      <path d="M11.32,561.01c-.82-.08-1.51-.01-2.09-.23-1.75-.66-3.45-1.44-5.17-2.17,1.67-.61,3.3-1.6,5-1.73,3.47-.27,7-.27,10.47.02,1.29.11,2.5,1.32,3.74,2.03-1.16.62-2.26,1.46-3.5,1.81-1.08.31-2.31.06-3.88.06v20.02c1.59,0,3.37-.22,5.05.09.86.16,1.55,1.26,2.32,1.94-.63.64-1.25,1.81-1.91,1.82-5.16.15-10.32.15-15.48,0-.61-.02-1.65-1.24-1.66-1.91,0-.64,1-1.72,1.7-1.84,1.61-.28,3.31-.09,5.39-.09v-19.83Z"/>
      <path d="M16.96,619.79c-2.34,0-4.2.25-5.95-.1-.96-.19-1.72-1.41-2.57-2.16.84-.57,1.65-1.6,2.52-1.64,3.98-.18,7.99-.23,11.96,0,1.16.07,2.27,1.18,3.4,1.81-1.09.7-2.13,1.47-3.27,2.08-.54.28-1.25.24-2.43.43,0,5.52.08,10.98-.03,16.44-.07,3.62-1.45,7.15-5.29,7.36-4.08.23-8.71-.18-12.15-2.05-1.56-.85-.82-5.91-1.13-9.07.64-.16,1.27-.32,1.91-.49.51,1.39,1.26,2.75,1.49,4.19.58,3.59,2.68,5.22,6.16,5.17,3.46-.06,5.22-2.19,5.34-5.39.2-5.29.05-10.59.05-16.59Z"/>
      <path d="M139.81,1338.2c3.04,1.66,4.96,2.71,6.88,3.76-2.14.61-4.24,1.48-6.43,1.77-2.28.31-4.68.32-6.95-.03-1.29-.2-2.43-1.38-3.64-2.11,1.19-.6,2.33-1.3,3.57-1.74.74-.27,1.64-.12,2.85-.18v-22.53c-.92.12-1.97.37-3.03.38-1.01.01-2.02-.22-3.03-.34-.11-.58-.23-1.15-.34-1.73,3.05-.97,6.1-1.93,10.11-3.2v25.96Z"/>
      <path d="M201.81,436.32v26.51c.88.52,1.14.71,1.43.84,1.81.83,5.28-1.48,5.19,2.45-.01.6-3.44,1.39-5.34,1.6-2.46.28-5,.28-7.46-.02-1.37-.17-2.64-1.18-3.95-1.81,1.24-.7,2.44-1.52,3.75-2.07.72-.3,1.63-.16,2.76-.24v-22.51h-6.15c-.11-.58-.23-1.16-.34-1.74,3.11-.93,6.23-1.87,10.13-3.04Z"/>
      <path d="M229.22,441.2c-2.07.12-4.05.23-6.02.34-.15-.62-.31-1.24-.46-1.85,3.11-1.07,6.22-2.14,10.16-3.5v26.19c2.83,1.42,4.81,2.42,6.78,3.42-2.25.67-4.46,1.6-6.76,1.94-2.28.33-4.67.29-6.96-.02-1.17-.16-2.21-1.27-3.31-1.95,1.13-.65,2.2-1.45,3.4-1.9.88-.33,1.93-.19,3.15-.27v-22.38Z"/>
      <path d="M136.22,1025.2c-2.07.12-4.05.23-6.02.34-.15-.62-.31-1.24-.46-1.85,3.11-1.07,6.22-2.14,10.16-3.5v26.19c2.83,1.42,4.81,2.42,6.78,3.42-2.25.67-4.46,1.6-6.76,1.94-2.28.33-4.67.29-6.96-.02-1.17-.16-2.21-1.27-3.31-1.95,1.13-.65,2.2-1.45,3.4-1.9.88-.33,1.93-.19,3.15-.27v-22.38Z"/>
      <path d="M232.9,638.38c2.83,1.41,4.81,2.41,6.79,3.4-2.25.67-4.45,1.61-6.75,1.95-2.28.34-4.67.29-6.96-.02-1.17-.16-2.22-1.26-3.32-1.94,1.12-.66,2.19-1.46,3.39-1.91.88-.33,1.93-.19,3.16-.27v-22.38c-2.06.12-4.04.23-6.01.34-.15-.62-.31-1.23-.46-1.85,3.11-1.08,6.22-2.15,10.15-3.51v26.2Z"/>
      <path d="M263.74,1046.24c3.05,1.6,5,2.63,6.94,3.65-2.28.64-4.53,1.52-6.85,1.84-2.28.32-4.68.29-6.96-.03-1.14-.16-2.15-1.33-3.21-2.04.99-.62,1.92-1.44,3-1.8,1.04-.34,2.23-.21,3.58-.3v-22.41c-2.17.13-4.13.25-6.08.36-.15-.65-.3-1.29-.45-1.94,3.02-1.01,6.03-2.03,10.02-3.37v26.02Z"/>
      <path d="M139.95,1079.14v26.21c2.83,1.49,4.79,2.51,6.74,3.53-2.28.64-4.52,1.53-6.85,1.85-2.28.32-4.68.29-6.96-.03-1.15-.16-2.15-1.32-3.22-2.03.99-.62,1.92-1.44,3-1.8,1.04-.34,2.23-.21,3.59-.3v-22.4c-2.17.13-4.13.24-6.09.36-.15-.65-.29-1.29-.44-1.94,3.01-1.01,6.02-2.03,10.23-3.44Z"/>
      <path d="M234.05,1572.81c1.88,1.08,3.76,2.16,5.63,3.24-2.17.58-4.3,1.4-6.51,1.69-2.29.29-4.67.26-6.96-.02-1.23-.15-2.36-1.12-3.54-1.72,1.21-.73,2.37-1.58,3.66-2.15.71-.31,1.63-.14,2.8-.21v-22.49h-6.06c-.13-.59-.25-1.17-.38-1.76,3.08-.94,6.15-1.88,10.06-3.08v26.81c.44-.1.87-.21,1.31-.31Z"/>
      <path d="M260.32,463.59v-22.5h-6.32c-.11-.58-.22-1.16-.33-1.74,3.12-.93,6.24-1.86,10.15-3.02v26.56c.88.5,1.14.69,1.43.8,1.8.67,3.62,1.32,5.43,1.98-1.88.71-3.7,1.76-5.64,2.04-2.44.36-5,.3-7.45,0-1.36-.17-2.62-1.19-3.92-1.83,1.25-.69,2.46-1.5,3.77-2.04.72-.3,1.63-.16,2.88-.25Z"/>
      <path d="M232.91,1079.25v26.78c.85.36,1.28.54,1.7.72,1.69.76,3.38,1.52,5.08,2.27-1.83.59-3.62,1.49-5.49,1.7-2.63.29-5.33.26-7.96,0-1.23-.12-2.38-1.11-3.56-1.7,1.2-.74,2.35-1.6,3.63-2.17.7-.31,1.63-.14,2.81-.21v-22.48h-6.05c-.13-.59-.25-1.17-.38-1.76,3.07-.95,6.15-1.89,10.22-3.15Z"/>
      <path d="M229.29,171.63v-22.48h-6.23c-.12-.59-.25-1.17-.37-1.76,3.08-.94,6.16-1.89,10.05-3.08v26.65c1.03.43,1.46.6,1.88.79,1.69.76,3.37,1.52,5.06,2.29-1.67.59-3.3,1.51-5.01,1.68-2.8.28-5.66.25-8.46,0-1.22-.11-2.37-1.11-3.55-1.71,1.21-.73,2.37-1.59,3.65-2.16.71-.31,1.63-.14,2.97-.22Z"/>
      <path d="M265.22,112.8c1.82,1.12,3.64,2.24,5.46,3.36-2.04.54-4.05,1.32-6.13,1.57-2.29.27-4.68.28-6.96-.02-1.37-.18-2.62-1.2-3.92-1.84,1.25-.69,2.46-1.49,3.78-2.04.72-.3,1.63-.16,2.75-.24v-22.51h-6.18c-.11-.58-.22-1.16-.33-1.73,3.13-.93,6.25-1.86,10.15-3.02v26.9c.46-.14.93-.28,1.39-.42Z"/>
      <path d="M139.86,962.33v26.64c.88.45,1.15.63,1.44.74,1.79.68,3.59,1.34,5.38,2.01-1.89.69-3.74,1.72-5.7,1.99-2.44.35-5,.3-7.45,0-1.35-.17-2.58-1.23-3.87-1.89,1.27-.68,2.5-1.45,3.83-1.99.73-.29,1.62-.17,2.71-.26v-22.52h-6.22c-.1-.57-.21-1.14-.31-1.72,3.14-.93,6.28-1.86,10.19-3.02Z"/>
      <path d="M167.22,1573.58v-22.38c-2.08.12-4.05.23-6.03.34-.15-.62-.3-1.24-.45-1.86,3.11-1.07,6.21-2.14,10.05-3.46v27.05c1.63.21,2.93.17,4.05.59,1.04.39,1.9,1.26,2.84,1.93-.92.67-1.81,1.85-2.77,1.91-3.64.23-7.32.25-10.95,0-1.14-.08-2.2-1.27-3.3-1.95,1.13-.65,2.2-1.45,3.4-1.9.88-.33,1.93-.19,3.15-.27Z"/>
      <path d="M136.17,1551.1h-6.15c-.11-.58-.23-1.16-.34-1.74,3.11-.93,6.23-1.87,10.13-3.03v26.51c.88.52,1.14.71,1.43.84,1.81.83,5.28-1.48,5.19,2.45-.01.6-3.44,1.39-5.34,1.6-2.46.28-5,.28-7.46-.02-1.37-.17-2.64-1.18-3.95-1.81,1.24-.7,2.44-1.52,3.75-2.06.72-.3,1.63-.16,2.76-.24v-22.51Z"/>
      <path d="M172.17,696.81c1.84,1.11,3.67,2.22,5.51,3.33-2.03.55-4.03,1.35-6.1,1.6-2.29.28-4.67.28-6.96-.02-1.37-.18-2.64-1.18-3.95-1.81,1.24-.7,2.44-1.52,3.74-2.07.72-.3,1.63-.16,2.76-.24v-22.51h-6.15c-.11-.58-.23-1.16-.34-1.74,3.11-.93,6.23-1.87,10.13-3.03v26.87c.46-.13.91-.26,1.37-.39Z"/>
      <path d="M234.2,229.81c1.83,1.12,3.65,2.23,5.48,3.35-2.04.55-4.04,1.33-6.12,1.58-2.29.28-4.67.28-6.96-.02-1.37-.18-2.63-1.19-3.94-1.83,1.25-.7,2.45-1.5,3.76-2.05.72-.3,1.63-.16,2.75-.24v-22.51h-6.17c-.11-.58-.22-1.16-.34-1.74,3.12-.93,6.24-1.86,10.14-3.03v26.89c.46-.14.92-.27,1.38-.41Z"/>
      <path d="M136.24,1142.14c-2.19.13-4.14.25-6.09.37-.15-.65-.29-1.3-.44-1.95,3.03-1.01,6.05-2.02,10.05-3.35v26.01c3.04,1.63,4.98,2.66,6.92,3.69-2.12.63-4.21,1.53-6.38,1.81-2.45.32-5,.29-7.46-.03-1.13-.15-2.13-1.35-3.18-2.07,1-.61,1.94-1.41,3.03-1.77,1.04-.34,2.23-.21,3.55-.3v-22.42Z"/>
      <path d="M229.1,383.18c-2.12.1-4.05.18-5.99.27-.14-.68-.28-1.36-.42-2.04,3.06-.95,6.13-1.91,10.02-3.12v27.06c1.69.2,2.87.1,3.84.51,1.14.48,2.1,1.4,3.14,2.13-1.15.6-2.28,1.63-3.47,1.72-3.31.24-6.65.24-9.96,0-1.23-.09-2.39-1.09-3.59-1.67,1.19-.75,2.33-1.62,3.61-2.2.7-.32,1.63-.14,2.83-.2v-22.47Z"/>
      <path d="M203.19,404.81c1.83,1.11,3.66,2.23,5.49,3.34-2.03.55-4.04,1.34-6.11,1.59-2.29.28-4.67.28-6.96-.02-1.37-.18-2.63-1.18-3.95-1.82,1.24-.7,2.44-1.51,3.75-2.06.72-.3,1.63-.16,2.76-.24v-22.51h-6.16c-.11-.58-.23-1.16-.34-1.74,3.12-.93,6.23-1.86,10.14-3.03v26.88c.46-.13.92-.27,1.37-.4Z"/>
      <path d="M229.24,1164.57v-22.39c-2.14.12-4.1.24-6.06.35-.15-.64-.3-1.29-.45-1.93,3.01-1.02,6.01-2.04,10-3.39v26.04c3.05,1.58,5.01,2.6,6.96,3.62-2.27.65-4.51,1.54-6.82,1.87-2.28.32-4.67.29-6.96-.03-1.15-.16-2.16-1.31-3.24-2.01.98-.63,1.9-1.46,2.97-1.82,1.04-.35,2.24-.21,3.6-.3Z"/>
      <path d="M265.11,1163.81c1.86,1.09,3.72,2.19,5.57,3.28-2.18.57-4.34,1.39-6.55,1.64-2.46.29-5,.24-7.46-.02-1.05-.11-2-1.14-3-1.76.89-.71,1.69-1.69,2.71-2.07,1.03-.38,2.28-.18,3.77-.24v-22.52h-6.11c-.12-.58-.24-1.17-.36-1.75,3.1-.94,6.2-1.87,10.09-3.05v26.84c.45-.12.89-.24,1.34-.36Z"/>
      <path d="M263.81,930.2c3.04,1.66,4.96,2.71,6.88,3.76-2.14.61-4.24,1.48-6.43,1.77-2.28.31-4.68.32-6.95-.03-1.29-.2-2.43-1.38-3.64-2.11,1.19-.6,2.33-1.3,3.57-1.74.74-.27,1.63-.12,2.85-.18v-22.53c-.92.12-1.97.37-3.03.38-1.01.01-2.02-.22-3.03-.34l-.34-1.72c3.04-.96,6.09-1.93,10.11-3.2v25.96Z"/>
      <path d="M232.92,930.36c2.83,1.45,4.8,2.46,6.77,3.46-2.26.66-4.49,1.55-6.8,1.9-2.11.32-4.35.31-6.46-.02-1.33-.21-2.52-1.3-3.77-1.99,1.31-.64,2.58-1.37,3.93-1.89.73-.28,1.59-.18,2.63-.28v-22.36c-2.11.12-4.08.23-6.04.34-.15-.62-.3-1.25-.45-1.87,3.12-1.06,6.23-2.11,10.18-3.45v26.15Z"/>
      <path d="M203.22,930.8c1.82,1.12,3.64,2.24,5.46,3.36-2.04.54-4.05,1.32-6.13,1.57-2.29.27-4.68.28-6.96-.02-1.37-.18-2.62-1.2-3.92-1.84,1.25-.69,2.46-1.49,3.78-2.04.72-.3,1.63-.16,2.75-.24v-22.51h-6.18c-.11-.58-.22-1.16-.33-1.73,3.12-.93,6.24-1.86,10.15-3.02v26.9c.46-.14.93-.28,1.39-.42Z"/>
      <path d="M263.92,1514.36c2.83,1.45,4.8,2.46,6.77,3.46-2.26.66-4.49,1.55-6.8,1.9-2.11.32-4.35.31-6.46-.02-1.33-.21-2.52-1.3-3.77-1.99,1.31-.64,2.58-1.37,3.93-1.89.73-.28,1.59-.18,2.63-.28v-22.36c-2.11.12-4.08.23-6.04.34-.15-.62-.3-1.25-.45-1.87,3.11-1.05,6.23-2.11,10.18-3.45v26.15Z"/>
      <path d="M140.01,1196.3v25.72c2.82,1.79,4.74,3.01,6.66,4.23-2.23.52-4.45,1.24-6.71,1.49-2.3.26-4.68.27-6.96-.04-1.18-.16-2.23-1.25-3.34-1.92,1.12-.66,2.17-1.48,3.37-1.94.88-.33,1.94-.18,3.18-.27v-22.54h-6.24c-.1-.57-.2-1.14-.3-1.71,3.15-.93,6.3-1.86,10.35-3.04Z"/>
      <path d="M263.92,229.36c2.83,1.45,4.8,2.46,6.77,3.46-2.26.66-4.49,1.55-6.8,1.9-2.11.32-4.35.31-6.46-.02-1.33-.21-2.52-1.3-3.77-1.99,1.31-.64,2.58-1.37,3.93-1.89.73-.28,1.59-.18,2.63-.28v-22.36c-2.11.12-4.08.23-6.04.34-.15-.62-.3-1.25-.45-1.87,3.12-1.06,6.23-2.11,10.18-3.45v26.15Z"/>
      <path d="M198.31,1223.6v-22.5h-6.29c-.12-.58-.23-1.16-.35-1.74,3.11-.93,6.22-1.87,10.12-3.04v26.5c.88.53,1.14.72,1.42.85,1.81.84,5.28-1.48,5.2,2.45-.01.59-3.43,1.39-5.33,1.61-2.46.28-5,.28-7.46-.02-1.37-.17-2.65-1.17-3.97-1.8,1.24-.71,2.43-1.53,3.74-2.08.72-.3,1.63-.15,2.91-.24Z"/>
      <path d="M167.25,909.14c-2.19.13-4.14.25-6.09.37l-.44-1.95c3.02-1.01,6.05-2.02,10.04-3.35v26.01c3.04,1.62,4.98,2.65,6.92,3.68-2.12.63-4.21,1.54-6.38,1.82-2.45.32-5,.29-7.46-.03-1.13-.15-2.13-1.34-3.19-2.06,1-.61,1.94-1.42,3.02-1.77,1.04-.34,2.23-.21,3.56-.3v-22.42Z"/>
      <path d="M232.91,670.25v26.78c.85.36,1.28.54,1.7.72,1.69.76,3.38,1.52,5.08,2.27-1.83.59-3.62,1.49-5.49,1.7-2.63.29-5.33.25-7.96,0-1.23-.12-2.38-1.11-3.56-1.7,1.2-.74,2.35-1.6,3.63-2.17.7-.31,1.63-.14,2.81-.21v-22.48h-6.05c-.13-.59-.25-1.17-.38-1.76,3.07-.94,6.14-1.89,10.22-3.15Z"/>
      <path d="M172.2,1514.8c1.83,1.12,3.65,2.23,5.48,3.35-2.04.55-4.04,1.33-6.12,1.58-2.29.28-4.67.28-6.96-.02-1.37-.18-2.63-1.19-3.94-1.83,1.25-.7,2.45-1.5,3.76-2.05.72-.3,1.63-.16,2.75-.24v-22.51h-6.16c-.12-.58-.23-1.16-.35-1.74,3.12-.93,6.24-1.86,10.14-3.03v26.89c.46-.14.92-.27,1.38-.41Z"/>
      <path d="M170.92,638.36c2.83,1.45,4.8,2.46,6.77,3.46-2.26.66-4.49,1.55-6.8,1.9-2.11.32-4.35.31-6.46-.02-1.33-.21-2.52-1.3-3.77-1.99,1.31-.64,2.58-1.37,3.93-1.89.73-.28,1.59-.18,2.63-.28v-22.36c-2.11.12-4.08.23-6.04.34l-.45-1.87c3.11-1.05,6.23-2.11,10.18-3.45v26.15Z"/>
      <path d="M136.11,1493.18c-2.12.1-4.06.18-5.99.27l-.42-2.04c3.06-.95,6.13-1.91,10.02-3.11v27.06c1.69.2,2.87.1,3.84.51,1.14.48,2.1,1.4,3.14,2.14-1.15.6-2.28,1.63-3.47,1.72-3.31.24-6.65.24-9.96,0-1.23-.09-2.39-1.09-3.59-1.67,1.2-.75,2.34-1.62,3.61-2.2.7-.32,1.63-.13,2.83-.19v-22.47Z"/>
      <path d="M167.24,500.18c-2.14.12-4.1.24-6.06.35-.15-.64-.3-1.28-.46-1.92,3-1.02,6.01-2.04,9.99-3.4v26.04c3.05,1.58,5.01,2.59,6.97,3.61-2.27.65-4.5,1.55-6.82,1.88-2.28.32-4.67.29-6.96-.03-1.15-.16-2.17-1.31-3.25-2.01.98-.63,1.89-1.47,2.97-1.83,1.04-.35,2.24-.21,3.61-.3v-22.39Z"/>
      <path d="M263.89,696.38c2.82,1.41,4.81,2.4,6.79,3.39-2.24.68-4.45,1.61-6.74,1.95-2.28.34-4.67.29-6.96-.02-1.17-.16-2.22-1.26-3.32-1.93,1.12-.66,2.19-1.47,3.38-1.92.88-.33,1.93-.19,3.17-.27v-22.38c-2.06.12-4.03.23-6.01.34-.15-.62-.31-1.23-.46-1.85,3.1-1.08,6.2-2.15,10.15-3.52v26.21Z"/>
      <path d="M136.23,1281.57v-22.39c-2.13.12-4.09.23-6.05.34-.15-.64-.31-1.28-.46-1.92,3-1.02,5.99-2.05,9.99-3.41v26.05c3.05,1.57,5.01,2.59,6.97,3.6-2.27.65-4.5,1.56-6.81,1.88-2.28.32-4.67.29-6.96-.03-1.16-.16-2.18-1.3-3.26-2,.98-.63,1.89-1.48,2.96-1.84,1.04-.35,2.24-.21,3.61-.3Z"/>
      <path d="M263.72,346.09c3.18,1.79,5.07,2.85,6.97,3.92-2.16.6-4.28,1.44-6.47,1.72-2.29.3-4.67.26-6.96-.01-1.24-.15-2.39-1.1-3.58-1.69,1.2-.74,2.34-1.61,3.62-2.19.7-.32,1.63-.14,2.82-.2v-22.48h-6.04c-.13-.59-.26-1.17-.38-1.76,3.07-.95,6.14-1.9,10.03-3.1v25.79Z"/>
      <path d="M198.24,1259.14c-2.19.13-4.14.25-6.09.37-.15-.65-.29-1.3-.44-1.95,3.03-1.01,6.05-2.02,10.05-3.35v26.01c3.04,1.63,4.98,2.66,6.92,3.69-2.12.63-4.21,1.53-6.38,1.81-2.45.32-5,.29-7.46-.03-1.13-.15-2.13-1.35-3.18-2.07,1-.61,1.94-1.41,3.03-1.77,1.04-.34,2.23-.21,3.55-.3v-22.42Z"/>
      <path d="M201.88,346.32c3.12,1.56,4.96,2.49,6.81,3.42-2.07.69-4.09,1.68-6.21,1.98-2.44.35-5,.28-7.46-.01-1.18-.14-2.24-1.24-3.35-1.9,1.11-.67,2.16-1.5,3.35-1.95.88-.34,1.94-.18,3.19-.27v-22.53h-6.23c-.1-.57-.21-1.14-.31-1.71,3.15-.93,6.3-1.86,10.21-3.01v25.99Z"/>
      <path d="M260.32,1281.59v-22.5h-6.32c-.11-.58-.22-1.16-.33-1.73,3.13-.93,6.25-1.86,10.16-3.02v26.57c.88.49,1.14.68,1.44.79,1.8.67,3.61,1.32,5.42,1.98-1.88.71-3.71,1.76-5.65,2.04-2.44.36-5,.3-7.45,0-1.36-.17-2.62-1.2-3.92-1.84,1.25-.69,2.46-1.49,3.78-2.03.73-.3,1.63-.16,2.88-.26Z"/>
      <path d="M253.8,556.3c3.04-.91,6.09-1.82,9.93-2.97v26.62c1.03.44,1.46.61,1.88.8,1.69.76,3.38,1.52,5.08,2.27-1.66.59-3.29,1.52-4.99,1.7-2.8.28-5.66.25-8.46,0-1.23-.11-2.38-1.1-3.56-1.7,1.2-.74,2.35-1.6,3.63-2.17.7-.31,1.63-.14,2.82-.21v-22.48h-6.05c-.09-.62-.18-1.24-.26-1.86Z"/>
      <path d="M229.21,872.59v-22.54h-6.23c-.1-.57-.2-1.14-.31-1.71,3.15-.93,6.3-1.86,10.21-3.01v26.67c.88.43,1.15.6,1.45.71,1.78.68,3.57,1.35,5.35,2.03-1.9.68-3.76,1.71-5.72,1.97-2.61.34-5.33.28-7.96,0-1.17-.13-2.23-1.24-3.35-1.91,1.11-.66,2.17-1.49,3.36-1.94.88-.33,1.94-.18,3.19-.26Z"/>
      <path d="M198.33,872.58v-22.52h-6.35c-.1-.57-.21-1.14-.31-1.71,3.15-.93,6.3-1.86,10.21-3.01v26.66c.87.44,1.15.61,1.45.72,1.78.68,3.57,1.35,5.36,2.02-1.9.69-3.76,1.72-5.71,1.98-2.61.34-5.33.28-7.95,0-1.17-.13-2.24-1.24-3.35-1.9,1.11-.67,2.16-1.5,3.35-1.95.88-.34,1.94-.18,3.31-.27Z"/>
      <path d="M172.13,754.81c1.85,1.1,3.7,2.2,5.55,3.3-2.02.56-4.01,1.37-6.07,1.63-2.29.28-4.67.28-6.96-.02-1.38-.18-2.66-1.16-3.98-1.78,1.23-.71,2.42-1.54,3.72-2.09.72-.31,1.63-.15,2.77-.23v-22.5h-6.13l-.35-1.75c3.1-.94,6.21-1.87,10.11-3.05v26.85l1.35-.37Z"/>
      <path d="M203.05,754.81c1.88,1.08,3.76,2.16,5.64,3.23-2.17.58-4.3,1.41-6.51,1.69-2.29.29-4.67.26-6.96-.02-1.23-.15-2.37-1.12-3.54-1.72,1.21-.73,2.37-1.59,3.66-2.15.71-.31,1.63-.14,2.8-.21v-22.49h-6.07c-.12-.59-.25-1.17-.37-1.76,3.08-.94,6.17-1.89,10.06-3.08v26.81l1.3-.31Z"/>
      <path d="M170.9,845.25v26.99c1,.25,1.64.31,2.19.56,1.55.7,3.06,1.48,4.59,2.22-1.49.59-2.95,1.56-4.49,1.7-2.97.27-5.99.25-8.96,0-1.23-.1-2.38-1.1-3.57-1.69,1.2-.74,2.35-1.61,3.63-2.18.7-.31,1.63-.14,2.82-.2v-22.48h-6.05c-.13-.59-.25-1.17-.38-1.76,3.07-.95,6.15-1.89,10.22-3.15Z"/>
      <path d="M198.12,1317.16h-6.07c-.12-.59-.25-1.17-.37-1.76,3.08-.95,6.15-1.89,10.04-3.09v26.64c1.03.44,1.46.61,1.88.8,1.69.76,3.38,1.52,5.08,2.27-1.66.59-3.29,1.52-4.99,1.7-2.8.28-5.66.25-8.46,0-1.23-.11-2.38-1.1-3.56-1.7,1.2-.74,2.36-1.6,3.64-2.17.7-.31,1.63-.14,2.81-.21v-22.48Z"/>
      <path d="M222.66,1315.34c3.16-.93,6.31-1.85,10.24-3.01v26.04c2.83,1.42,4.8,2.42,6.78,3.42-2.25.67-4.46,1.6-6.76,1.93-2.28.33-4.67.29-6.96-.02-1.17-.16-2.21-1.27-3.3-1.95,1.13-.65,2.2-1.45,3.4-1.9.88-.33,1.93-.19,3.15-.27v-22.37c-2.07.12-4.05.23-6.02.34-.18-.73-.36-1.46-.54-2.2Z"/>
      <path d="M198.21,288.59v-22.54h-6.22l-.32-1.71c3.14-.93,6.29-1.85,10.21-3.01v26.67c.88.43,1.15.6,1.45.71,1.78.68,3.57,1.35,5.35,2.03-1.9.68-3.76,1.71-5.72,1.97-2.61.34-5.33.28-7.96,0-1.17-.13-2.23-1.24-3.35-1.91,1.11-.66,2.17-1.49,3.36-1.94.88-.33,1.94-.18,3.19-.26Z"/>
      <path d="M260.21,814.59v-22.54h-6.24c-.1-.57-.2-1.14-.3-1.71,3.15-.93,6.3-1.85,10.22-3.01v25.6c2.95,1.88,4.87,3.1,6.79,4.32-2.24.51-4.45,1.23-6.71,1.49-2.3.26-4.68.27-6.96-.04-1.18-.16-2.23-1.25-3.34-1.92,1.12-.66,2.17-1.48,3.37-1.93.88-.33,1.93-.18,3.18-.26Z"/>
      <path d="M198.27,814.65v-22.47h-6.19l-.39-1.75c3.06-.96,6.11-1.92,10-3.15v27.06c1.69.2,2.87.11,3.84.51,1.15.48,2.11,1.39,3.15,2.12-1.15.61-2.26,1.65-3.45,1.74-3.31.24-6.65.24-9.96,0-1.24-.09-2.41-1.07-3.61-1.65,1.19-.76,2.32-1.64,3.59-2.22.7-.32,1.63-.13,3.02-.2Z"/>
      <path d="M167.22,814.58v-22.38c-2.08.12-4.05.23-6.03.34-.15-.62-.3-1.24-.45-1.86,3.11-1.07,6.22-2.14,10.16-3.5v26.19c2.83,1.42,4.81,2.42,6.79,3.41-2.25.67-4.46,1.6-6.76,1.94-2.28.33-4.67.29-6.96-.02-1.17-.16-2.21-1.27-3.31-1.95,1.13-.65,2.2-1.46,3.4-1.9.88-.33,1.93-.19,3.16-.27Z"/>
      <path d="M170.92,1455.36c2.83,1.45,4.8,2.46,6.77,3.46-2.26.66-4.49,1.55-6.8,1.9-2.11.32-4.35.31-6.46-.02-1.33-.21-2.52-1.3-3.77-1.99,1.31-.64,2.58-1.37,3.93-1.89.73-.28,1.59-.18,2.63-.28v-22.36c-2.11.12-4.08.23-6.04.34-.15-.62-.3-1.25-.45-1.87,3.11-1.05,6.23-2.11,10.18-3.45v26.15Z"/>
      <path d="M136.33,1398.58v-22.5h-6.32c-.11-.58-.22-1.16-.33-1.73,3.13-.93,6.26-1.86,10.16-3.02v26.58c.88.49,1.14.68,1.44.79,1.8.67,3.61,1.33,5.42,1.99-1.88.71-3.71,1.75-5.66,2.03-2.44.35-5,.3-7.45,0-1.36-.17-2.61-1.2-3.91-1.85,1.26-.69,2.47-1.49,3.79-2.03.72-.3,1.63-.16,2.87-.26Z"/>
      <path d="M136.21,1456.59v-22.54h-6.24c-.1-.57-.2-1.14-.3-1.71,3.15-.93,6.3-1.85,10.22-3.01v25.6c2.95,1.88,4.87,3.1,6.79,4.32-2.24.51-4.45,1.23-6.71,1.49-2.3.26-4.68.27-6.96-.04-1.18-.16-2.23-1.25-3.34-1.92,1.12-.66,2.17-1.48,3.37-1.93.88-.33,1.93-.18,3.18-.26Z"/>
      <path d="M203.05,1397.81l5.63,3.24c-2.17.58-4.31,1.4-6.51,1.69-2.29.29-4.67.26-6.96-.02-1.23-.15-2.36-1.12-3.54-1.72,1.21-.73,2.37-1.58,3.66-2.15.71-.31,1.63-.14,2.8-.21v-22.49h-6.07c-.12-.59-.25-1.17-.37-1.76,3.08-.94,6.15-1.88,10.06-3.08v26.81c.44-.1.87-.21,1.31-.31Z"/>
      <path d="M229.21,1398.59v-22.54h-6.23c-.1-.57-.2-1.14-.31-1.71,3.15-.93,6.3-1.86,10.21-3.01v26.67c.88.43,1.15.6,1.45.71,1.78.68,3.57,1.35,5.35,2.03-1.9.68-3.76,1.71-5.72,1.97-2.61.34-5.33.28-7.96,0-1.17-.13-2.23-1.24-3.35-1.91,1.11-.66,2.17-1.49,3.36-1.94.88-.33,1.94-.18,3.19-.26Z"/>
      <path d="M263.93,1371.07v26.79c.72.47.97.68,1.25.8,1.83.82,3.67,1.62,5.5,2.42-1.85.57-3.66,1.43-5.55,1.65-2.46.29-5,.28-7.46-.01-1.39-.16-2.67-1.14-4.01-1.75,1.22-.72,2.4-1.56,3.69-2.12.71-.31,1.63-.15,2.79-.22v-22.5c-1.9.16-3.87.33-5.84.49l-.53-1.81c3.04-1.12,6.08-2.24,10.17-3.74Z"/>
      <path d="M167.3,580.61v-22.49h-6.26c-.12-.58-.24-1.17-.36-1.75,3.1-.94,6.19-1.88,10.09-3.06v26.43c.89.57,1.13.78,1.41.91,1.83.82,3.66,1.62,5.5,2.43-1.85.57-3.66,1.43-5.55,1.65-2.46.29-5,.28-7.46-.01-1.39-.16-2.67-1.14-4.01-1.76,1.22-.72,2.4-1.56,3.69-2.12.71-.31,1.63-.15,2.94-.23Z"/>
      <path d="M75.61,1334.78c-2.66,0-5.33.14-7.97-.08-.84-.07-1.59-1.11-2.39-1.7.66-.73,1.3-2.06,1.98-2.08,5.65-.17,11.3-.15,16.95-.02.66.02,1.29,1.11,1.94,1.7-.68.73-1.31,2.01-2.04,2.08-2.8.25-5.64.1-8.47.1Z"/>
      <path d="M76,805.81c2.49,0,5.01-.19,7.47.09.95.11,1.77,1.3,2.65,2-.78.63-1.54,1.78-2.33,1.8-5.48.16-10.97.16-16.45-.01-.71-.02-1.39-1.29-2.08-1.99.76-.63,1.48-1.74,2.28-1.8,2.81-.22,5.64-.09,8.47-.09Z"/>
      <path d="M75.77,225.79c-2.66,0-5.34.18-7.97-.1-.91-.1-1.7-1.32-2.55-2.03.77-.62,1.53-1.74,2.32-1.77,5.31-.16,10.64-.18,15.95,0,.89.03,1.73,1.33,2.6,2.04-.96.62-1.87,1.67-2.88,1.77-2.47.26-4.98.08-7.47.08Z"/>
      <path d="M75.47,400.79c-2.66,0-5.33.14-7.97-.09-.8-.07-1.51-1.19-2.25-1.83.71-.68,1.39-1.94,2.12-1.96,5.48-.17,10.97-.17,16.45,0,.78.02,1.54,1.2,2.3,1.84-.89.69-1.73,1.87-2.68,1.96-2.63.27-5.31.09-7.97.09Z"/>
      <path d="M75.47,1276.79c-2.66,0-5.33.14-7.97-.09-.8-.07-1.51-1.19-2.25-1.83.71-.68,1.39-1.94,2.12-1.96,5.48-.17,10.97-.17,16.45,0,.78.02,1.54,1.2,2.3,1.84-.89.69-1.73,1.87-2.68,1.96-2.63.27-5.31.09-7.97.09Z"/>
      <path d="M75.54,283.8c-2.33,0-4.68.2-6.97-.08-1.16-.14-2.21-1.16-3.32-1.79,1.02-.71,2.01-1.98,3.05-2.03,4.98-.21,9.97-.19,14.95-.01.97.04,1.91,1.16,2.86,1.78-1.03.71-2.01,1.89-3.11,2.03-2.45.31-4.97.1-7.47.1Z"/>
      <path d="M75.84,692.79c-2.66,0-5.34.18-7.97-.09-.93-.1-1.75-1.28-2.62-1.97.75-.64,1.49-1.81,2.25-1.83,5.48-.16,10.97-.16,16.45.01.74.02,1.44,1.28,2.16,1.96-.77.64-1.49,1.75-2.31,1.83-2.64.24-5.31.09-7.97.09Z"/>
      <path d="M75.61,1218.78c-2.66,0-5.33.15-7.97-.08-.84-.07-1.59-1.11-2.39-1.7.66-.73,1.3-2.06,1.98-2.08,5.65-.17,11.3-.15,16.95-.02.66.02,1.29,1.11,1.94,1.7-.68.73-1.31,2.01-2.04,2.08-2.8.25-5.64.1-8.47.1Z"/>
      <path d="M75.58,1451.78c-2.66,0-5.33.15-7.97-.08-.83-.07-1.58-1.13-2.36-1.73.67-.72,1.32-2.03,2.01-2.05,5.65-.17,11.3-.15,16.95-.01.65.02,1.27,1.12,1.91,1.72-.69.72-1.33,1.99-2.07,2.05-2.8.25-5.64.1-8.47.1Z"/>
      <path d="M75.84,108.79c-2.66,0-5.34.18-7.97-.09-.93-.1-1.75-1.28-2.62-1.97.75-.64,1.49-1.81,2.25-1.83,5.48-.16,10.97-.16,16.45.01.74.02,1.44,1.28,2.16,1.96-.77.64-1.49,1.75-2.31,1.83-2.64.24-5.31.09-7.97.09Z"/>
      <path d="M75.9,863.82c2.66,0,5.33-.15,7.97.09.8.07,1.5,1.23,2.25,1.88-.74.66-1.47,1.88-2.23,1.9-5.48.17-10.97.16-16.45,0-.75-.02-1.46-1.23-2.19-1.89.72-.66,1.41-1.84,2.18-1.9,2.81-.23,5.64-.09,8.47-.09Z"/>
      <path d="M75.97,454.82c2.66,0,5.33-.15,7.97.1.78.07,1.45,1.27,2.18,1.95-.77.64-1.51,1.81-2.3,1.84-5.48.16-10.97.16-16.45,0-.72-.02-1.41-1.27-2.12-1.96.75-.64,1.45-1.77,2.25-1.83,2.81-.23,5.64-.09,8.47-.09Z"/>
      <path d="M75.74,342.79c-2.66,0-5.34.18-7.97-.1-.9-.1-1.68-1.34-2.52-2.06.78-.61,1.55-1.71,2.35-1.74,5.31-.16,10.64-.18,15.95.01.88.03,1.71,1.35,2.56,2.07-.97.61-1.89,1.63-2.91,1.74-2.47.26-4.98.08-7.47.08Z"/>
      <path d="M75.72,1159.78c-2.83,0-5.66.14-8.47-.11-.72-.06-1.57-1.26-1.88-2.11-.12-.32,1.12-1.64,1.76-1.65,5.65-.14,11.3-.16,16.95,0,.7.02,1.36,1.35,2.04,2.07-.81.6-1.58,1.64-2.43,1.72-2.64.23-5.31.08-7.97.08Z"/>
      <path d="M75.47,1101.79c-2.66,0-5.33.14-7.97-.09-.8-.07-1.51-1.19-2.25-1.83.71-.68,1.39-1.94,2.12-1.96,5.48-.17,10.97-.17,16.45,0,.78.02,1.54,1.2,2.3,1.84-.89.69-1.73,1.87-2.68,1.96-2.63.27-5.31.09-7.97.09Z"/>
      <path d="M75.74,634.79c-2.66,0-5.34.18-7.97-.1-.9-.1-1.68-1.34-2.52-2.06.78-.61,1.55-1.71,2.35-1.74,5.31-.16,10.64-.18,15.95.01.88.03,1.71,1.35,2.56,2.07-.97.61-1.89,1.63-2.91,1.74-2.47.26-4.98.08-7.47.08Z"/>
      <path d="M75.34,1510.79c-2.49,0-5.01.19-7.47-.09-.94-.11-1.75-1.28-2.62-1.97.75-.64,1.49-1.81,2.26-1.83,5.48-.16,10.97-.16,16.45.01.74.02,1.44,1.28,2.17,1.96-.77.64-1.5,1.76-2.31,1.83-2.81.23-5.64.09-8.47.09Z"/>
      <path d="M75.64,926.77c-2.82,0-5.66.11-8.47-.08-.67-.05-1.91-1.29-1.8-1.62.29-.86,1.16-2.13,1.83-2.15,5.64-.17,11.3-.16,16.95-.02.67.02,1.31,1.08,1.97,1.67-.67.74-1.28,2.04-2.01,2.11-2.8.25-5.64.1-8.47.1Z"/>
      <path d="M75.99,162.81c2.49,0,5.01-.19,7.47.09.95.11,1.78,1.29,2.66,1.98-.77.64-1.53,1.8-2.31,1.82-5.48.16-10.97.16-16.45,0-.72-.02-1.4-1.28-2.1-1.97.75-.64,1.47-1.75,2.27-1.82,2.81-.23,5.64-.09,8.47-.09Z"/>
      <path d="M76.18,746.83c2.66,0,5.33-.12,7.97.08.69.05,1.31,1.09,1.96,1.67-.67.73-1.32,2.08-2.01,2.1-5.64.17-11.3.15-16.95.01-.65-.02-1.9-1.3-1.79-1.63.29-.86,1.14-2.08,1.84-2.14,2.97-.24,5.97-.1,8.97-.1Z"/>
      <path d="M75.74,1393.79c-2.66,0-5.34.18-7.97-.1-.9-.1-1.68-1.34-2.52-2.06.78-.61,1.55-1.71,2.35-1.74,5.31-.16,10.64-.18,15.95.01.88.03,1.71,1.35,2.56,2.07-.97.61-1.89,1.63-2.91,1.74-2.47.26-4.98.08-7.47.08Z"/>
      <path d="M75.34,984.79c-2.49,0-5.01.19-7.47-.09-.94-.11-1.75-1.28-2.62-1.97.75-.64,1.49-1.81,2.26-1.83,5.48-.16,10.97-.16,16.45.01.74.02,1.44,1.28,2.17,1.96-.77.64-1.5,1.76-2.31,1.83-2.81.23-5.64.09-8.47.09Z"/>
      <path d="M75.24,575.79c-2.49,0-5.01.19-7.47-.1-.91-.11-1.69-1.34-2.52-2.06.78-.61,1.55-1.72,2.35-1.74,5.31-.16,10.64-.18,15.95,0,.88.03,1.71,1.34,2.57,2.06-.97.61-1.89,1.65-2.91,1.74-2.64.25-5.31.08-7.97.08Z"/>
      <path d="M75.59,517.78c-2.66,0-5.33.15-7.97-.08-.83-.07-1.58-1.12-2.37-1.72.67-.72,1.32-2.04,2-2.06,5.65-.17,11.3-.15,16.95-.01.65.02,1.28,1.12,1.92,1.71-.68.72-1.32,1.99-2.06,2.06-2.8.25-5.64.1-8.47.1Z"/>
      <path d="M75.84,1568.79c-2.66,0-5.34.18-7.97-.09-.93-.1-1.75-1.28-2.62-1.97.75-.64,1.49-1.81,2.25-1.83,5.48-.16,10.97-.16,16.45.01.74.02,1.44,1.28,2.16,1.96-.77.64-1.49,1.75-2.31,1.83-2.64.24-5.31.09-7.97.09Z"/>
      <path d="M76.03,1038.8c2.33,0,4.68-.22,6.97.1,1.11.16,2.08,1.32,3.11,2.03-.95.62-1.89,1.75-2.86,1.78-4.98.18-9.97.2-14.95-.01-1.04-.05-2.04-1.32-3.05-2.03,1.1-.62,2.16-1.66,3.31-1.79,2.46-.28,4.98-.08,7.47-.08Z"/>
    </g>
  </g>
</svg>