<?xml version="1.0" encoding="UTF-8"?>
<svg id="Layer_2" data-name="Layer 2" xmlns="http://www.w3.org/2000/svg" viewBox="0 0 470.61 182.31">
  <g id="Layer_1-2" data-name="Layer 1">
    <g id="Cc6Zf9">
      <g>
        <path d="M314.88.25c3.44-.74,7.64.07,8.83,3.74l.46,171.58c-.3,8.8-14.24,9.14-14.08.04l.99-173.14c1.06-.97,2.38-1.92,3.8-2.23Z"/>
        <path d="M194.89,14.32c1.39,1.3,2.13,5.21,2.31,7.19,4.02,44.47-3.14,94.97-.03,140.07-.62,10.59-13.81,10.56-15.05,0V20.53c-.34-6.26,8.5-10.21,12.77-6.22Z"/>
        <path d="M296.89,25.23c5.96-1.2,8.82,2.91,9.31,8.28,3.36,36.82-2.63,78.71-.03,116.07-.08,7.1-9.62,10.38-13.47,4.42-1.46-2.27-1.45-7.6-1.58-10.38-1.54-32.35-1.7-73.85.03-106.13.24-4.46-.04-11.09,5.74-12.26Z"/>
        <path d="M147.45,156.77c-1.25-1.54-1.18-3.31-1.34-5.17-3.31-38.99,2.57-82.58.02-122.06-.05-8.34,13.02-8.92,14.07-1.03l-.03,124.07c.37,6.72-9.12,8.64-12.72,4.19Z"/>
        <path d="M222.86,24.27c3.45-1.01,8.1-.65,9.53,3.04l.78,124.26c-.19,7.66-9.52,8.93-13.5,3.45l-.57-125.53c-.09-2.08,1.82-4.66,3.76-5.23Z"/>
        <path d="M387.89,29.23c5.95-1.2,8.82,2.91,9.31,8.28,3.13,34.29-2.45,73.28-.03,108.07-1.14,9.88-13.86,11.14-15.06-1.98-3.09-33.62,2.39-71.92.04-106.04.25-3.63,1.8-7.53,5.74-8.32Z"/>
        <path d="M430.86,32.36c1.59,1.28,2.17,4.17,2.36,6.14,3.17,33.52-2.55,72.05-.02,106.1-.8,8.85-13.49,8.89-14.06-.02,2.73-34.04-3.58-73.66.02-107.04.64-5.95,7.25-8.78,11.71-5.18Z"/>
        <path d="M242.89,31.21c3.28-.6,5.79,1.44,7.75,3.86l.57,109.54c-1.08,8.26-12.77,8.41-14.1,0l.98-110.12c1.29-1.23,3.02-2.96,4.8-3.28Z"/>
        <path d="M59.86,38.25c8.23-2.48,9.84,5.02,10.32,11.27,1.7,22.09,1.9,62.09-.05,84.02-.9,10.07-6.79,14.99-14.46,6.5l-.58-95.53c-.19-2.15,2.93-5.7,4.77-6.25Z"/>
        <path d="M30.86,48.36c1.1.89,2.19,3.65,2.33,5.16-2.25,23.52,2.85,52.2,0,75.08-1.14,9.12-12.9,7.83-14.02,1.94l.91-81.05c2.56-2.7,7.85-3.5,10.78-1.12Z"/>
        <path d="M331.84,53.25c5.72-1.74,9.65.44,10.33,6.28,1.53,13.13,1.51,49.89,0,63.05-1.07,9.28-12.97,9.3-14.05,0-1.52-13.14-1.53-49.91,0-63.05.26-2.28,1.27-5.54,3.71-6.28Z"/>
        <path d="M169.88,57.23c8.99-1.84,9,7.1,9.29,13.27.46,9.68,1.54,40.87-.52,48.58-2.45,9.17-13.62,7.82-14.55-2.47-1.52-16.8,1.18-35.93.11-52.99.37-2.9,2.8-5.8,5.68-6.38Z"/>
        <path d="M267.89,59.31c1.02,1.09,2.1,5.56,2.26,7.24,1.13,11.27,1.25,37.86,0,49-1.31,11.59-13.53,12.02-14.94,2.94-2.46-15.89,1.73-37.44-.08-53.96-.21-6.53,8.69-9.59,12.76-5.22Z"/>
        <path d="M212.86,116.75c-5.44,4.38-11.7.23-12.62-6.29-1.04-7.36-1.04-31.45,0-38.82,1.46-10.4,13.6-9.96,14.85-2.03,1.14,7.28,1.05,34.43.11,41.98-.19,1.52-1.21,4.26-2.33,5.16Z"/>
        <path d="M405.87,69.26c3.74-.82,7.05.38,8.52,4.06,1.27,3.19,1.39,28.86.7,33.18-1.06,6.69-9.58,9.11-13.02,4.13-2.77-3.99-2.75-34.07-.39-38.55.68-1.3,2.78-2.51,4.19-2.83Z"/>
        <path d="M85.9,71.32c1.01.93,2.11,4.69,2.28,6.22.67,6.01.73,22.08-.09,27.96-1.33,9.58-13.56,9.07-14.88,1.01-.81-4.92-.8-25.97,0-30.89.93-5.7,8.77-7.9,12.69-4.29Z"/>
        <path d="M132.88,69.25c3.07-.67,7.09-.1,8.53,3.04,1.2,2.62,1.32,31.08.68,35.2-1.19,7.62-12.91,8.12-13.96-.92-.72-6.25-.86-25.98.08-31.96.43-2.74,1.86-4.75,4.67-5.37Z"/>
        <path d="M41.86,69.25c3.8-1.16,8.53,1.46,9.27,5.32s.72,29.16,0,32.96c-1.42,7.49-12.67,6.78-13.95,0-.72-3.82-.73-29.15,0-32.95.33-1.72,3.05-4.83,4.69-5.32Z"/>
        <path d="M440.84,71.25c3.84-1.16,9.43-.21,10.28,4.33.71,3.78.7,27.16,0,30.95-1.14,6.14-12.58,7.16-13.92-1.03-.76-4.65-.76-24.24,0-28.88.32-1.97,1.63-4.75,3.63-5.36Z"/>
        <path d="M350.86,71.27c3.79-.87,8.43-.12,9.26,4.31.71,3.78.7,27.15,0,30.95-1.19,6.43-12.72,6.57-13.91-1.04-.78-4.95-.78-23.93,0-28.87.44-2.78,1.83-4.7,4.65-5.35Z"/>
        <path d="M7.82,72.31c2.76-.09,6.49,2.68,7.11,5.46.93,4.17.69,19.08.26,23.83-.81,8.92-10.12,11.02-13.84,3.7-1.74-3.42-1.77-24.16-.31-27.75,1.08-2.65,3.84-5.14,6.77-5.23Z"/>
        <path d="M277.85,77.26c11.99-3.6,11.71,14.83,10.08,22.08-1.86,8.29-13.44,7.36-14.73-.85-.79-5.03-1.3-19.44,4.65-21.23Z"/>
        <path d="M459.86,77.25c11.88-3.57,11.8,15.62,9.62,22.64-2.35,7.56-13.02,6.42-14.31-.36-.98-5.17-1.37-20.46,4.69-22.29Z"/>
        <path d="M371.65,77.5c8.8.02,8.85,15.69,7.05,21.61-2.28,7.49-13.68,7.72-14.6-2.51-.6-6.72-1.74-19.12,7.55-19.1Z"/>
        <path d="M103.86,102.75c-3.11,2.64-7.48,2.22-10.28-.64-6.19-6.33-2.69-31.8,9.94-22.93,3.93,2.76,3.85,20.59.33,23.58Z"/>
        <path d="M111.41,98.8c-1.88-1.99-1.81-12.74-.34-15.08,2.15-3.4,8.91-3.32,11.55.35,6.43,8.92-3.43,22.98-11.21,14.72Z"/>
      </g>
    </g>
  </g>
</svg>